{"glyphs":{"0":{"ha":998,"x_min":0,"x_max":0,"o":"m 499 -16 b 945 547 765 -16 945 218 b 499 1109 945 876 765 1109 b 53 547 233 1109 53 876 b 499 -16 53 218 233 -16 z m 498 157 b 224 547 333 157 224 319 b 498 937 224 775 333 937 b 773 547 663 937 773 775 b 498 157 773 319 663 157 z "},"1":{"ha":477,"x_min":0,"x_max":0,"o":"m 322 1103 l 53 1018 l 53 839 l 201 883 l 201 0 l 372 0 l 372 1103 z "},"2":{"ha":924,"x_min":0,"x_max":0,"o":"m 418 171 b 858 732 665 329 858 543 b 475 1109 858 933 690 1109 b 94 743 264 1109 94 948 l 251 705 b 481 938 251 836 353 938 b 686 723 585 938 686 846 b 53 37 686 590 503 401 l 53 0 l 872 0 l 872 171 z "},"3":{"ha":846,"x_min":0,"x_max":0,"o":"m 593 610 b 736 831 672 642 736 721 b 419 1124 736 1000 591 1124 b 103 879 256 1124 133 1009 l 279 842 b 418 956 292 909 350 956 b 564 819 498 956 564 899 b 324 654 564 715 451 654 l 297 554 b 620 338 486 555 620 471 b 420 159 620 245 536 159 b 221 303 326 159 241 220 l 53 260 b 425 -10 90 110 248 -10 b 793 326 631 -10 793 146 b 593 610 793 476 707 569 z "},"4":{"ha":923,"x_min":0,"x_max":0,"o":"m 891 406 l 771 406 l 771 757 l 600 757 l 600 406 l 273 406 l 602 1096 l 420 1097 l 16 235 l 600 235 l 600 0 l 771 0 l 771 235 l 891 235 z "},"5":{"ha":881,"x_min":0,"x_max":0,"o":"m 449 762 b 265 698 378 762 316 745 l 300 923 l 734 923 l 734 1094 l 170 1094 l 90 526 l 186 468 b 425 596 227 547 328 596 b 650 384 559 596 650 512 b 420 161 650 238 530 161 b 222 275 346 161 259 207 l 53 221 b 428 -9 113 81 267 -9 b 829 384 649 -9 829 151 b 449 762 829 601 680 762 z "},"6":{"ha":874,"x_min":0,"x_max":0,"o":"m 486 701 b 376 680 449 701 412 694 l 616 1093 l 421 1093 b 53 348 106 528 53 477 b 435 -14 53 134 222 -14 b 822 356 651 -14 822 157 b 486 701 822 561 657 701 z m 438 157 b 224 361 321 157 224 252 b 439 569 224 475 321 569 b 652 361 555 569 652 475 b 438 157 652 253 555 157 z "},"7":{"ha":795,"x_min":0,"x_max":0,"o":"m 32 1093 l 32 926 l 536 926 l 161 0 l 341 0 l 779 1061 l 779 1093 z "},"8":{"ha":851,"x_min":0,"x_max":0,"o":"m 425 -18 b 798 327 643 -18 798 142 b 580 617 798 496 663 602 b 742 833 652 632 742 718 b 426 1112 742 980 610 1112 b 111 833 241 1112 111 978 b 273 617 111 724 190 634 b 53 328 182 604 53 494 b 425 -18 53 144 206 -18 z m 427 694 b 277 823 347 694 277 743 b 427 952 277 903 344 952 b 576 821 509 952 576 903 b 427 694 576 739 503 694 z m 425 153 b 224 336 313 153 224 235 b 427 522 224 439 318 522 b 626 338 534 522 626 439 b 425 153 626 235 536 153 z "},"9":{"ha":874,"x_min":0,"x_max":0,"o":"m 437 1107 b 53 734 222 1107 53 934 b 387 382 53 530 214 382 b 490 401 422 382 457 389 l 258 -1 l 454 -1 b 822 732 764 536 822 578 b 437 1107 822 932 652 1107 z m 436 524 b 224 732 319 524 224 618 b 437 937 224 840 319 937 b 650 732 553 937 650 840 b 436 524 650 618 553 524 z "}," ":{"ha":407,"x_min":0,"x_max":0,"o":""},"A":{"ha":1070,"x_min":0,"x_max":0,"o":"m 868 0 l 1054 0 l 540 1116 l 530 1116 l 16 0 l 201 0 l 276 166 l 793 166 z m 342 313 l 535 741 l 727 313 z "},"Á":{"ha":1070,"x_min":0,"x_max":0,"o":"m 716 1405 l 565 1405 l 431 1183 l 555 1183 z m 868 0 l 1054 0 l 540 1116 l 530 1116 l 16 0 l 201 0 l 276 166 l 793 166 z m 342 313 l 535 741 l 727 313 z "},"Ă":{"ha":1070,"x_min":0,"x_max":0,"o":"m 535 1195 b 730 1390 642 1195 730 1282 l 647 1390 b 535 1274 647 1326 597 1274 b 425 1390 474 1274 425 1326 l 341 1390 b 535 1195 341 1282 429 1195 z m 868 0 l 1054 0 l 540 1116 l 530 1116 l 16 0 l 201 0 l 276 166 l 793 166 z m 342 313 l 535 741 l 727 313 z "},"Â":{"ha":1070,"x_min":0,"x_max":0,"o":"m 534 1310 l 658 1194 l 798 1194 l 583 1392 l 486 1392 l 273 1194 l 412 1194 z m 868 0 l 1054 0 l 540 1116 l 530 1116 l 16 0 l 201 0 l 276 166 l 793 166 z m 342 313 l 535 741 l 727 313 z "},"Ä":{"ha":1070,"x_min":0,"x_max":0,"o":"m 383 1217 b 454 1287 422 1217 454 1249 b 383 1359 454 1326 422 1359 b 312 1287 345 1359 312 1326 b 383 1217 312 1249 345 1217 z m 687 1217 b 759 1287 726 1217 759 1249 b 687 1359 759 1326 726 1359 b 616 1287 649 1359 616 1326 b 687 1217 616 1249 648 1217 z m 868 0 l 1054 0 l 540 1116 l 530 1116 l 16 0 l 201 0 l 276 166 l 793 166 z m 342 313 l 535 741 l 727 313 z "},"À":{"ha":1070,"x_min":0,"x_max":0,"o":"m 678 1183 l 544 1405 l 393 1405 l 554 1183 z m 868 0 l 1054 0 l 540 1116 l 530 1116 l 16 0 l 201 0 l 276 166 l 793 166 z m 342 313 l 535 741 l 727 313 z "},"Ā":{"ha":1070,"x_min":0,"x_max":0,"o":"m 730 1319 l 342 1319 l 342 1230 l 730 1230 z m 868 0 l 1054 0 l 540 1116 l 530 1116 l 16 0 l 201 0 l 276 166 l 793 166 z m 342 313 l 535 741 l 727 313 z "},"Ą":{"ha":1070,"x_min":0,"x_max":0,"o":"m 925 -234 b 856 -169 864 -234 856 -189 b 1008 0 856 -111 915 -62 l 1054 0 l 540 1116 l 530 1116 l 16 0 l 201 0 l 276 166 l 793 166 l 868 0 l 886 0 b 732 -208 802 -40 732 -115 b 913 -355 732 -300 800 -355 b 1019 -342 944 -355 980 -351 l 997 -224 b 925 -234 966 -231 939 -234 z m 342 313 l 535 741 l 727 313 z "},"Å":{"ha":1070,"x_min":0,"x_max":0,"o":"m 536 1162 b 681 1308 615 1162 681 1229 b 536 1454 681 1388 615 1454 b 390 1308 456 1454 390 1388 b 536 1162 390 1228 456 1162 z m 536 1380 b 608 1308 576 1380 608 1348 b 536 1236 608 1268 576 1236 b 463 1308 496 1236 463 1268 b 536 1380 463 1348 496 1380 z m 868 0 l 1054 0 l 540 1116 l 530 1116 l 16 0 l 201 0 l 276 166 l 793 166 z m 342 313 l 535 741 l 727 313 z "},"Ã":{"ha":1070,"x_min":0,"x_max":0,"o":"m 433 1292 b 637 1200 504 1292 535 1200 b 802 1347 689 1200 774 1221 l 718 1379 b 638 1291 704 1326 680 1291 b 433 1383 567 1291 535 1383 b 269 1237 381 1383 296 1362 l 353 1204 b 433 1292 366 1257 390 1292 z m 868 0 l 1054 0 l 540 1116 l 530 1116 l 16 0 l 201 0 l 276 166 l 793 166 z m 342 313 l 535 741 l 727 313 z "},"Æ":{"ha":1395,"x_min":0,"x_max":0,"o":"m 1321 924 l 1321 1093 l 562 1093 l 16 0 l 200 0 l 290 178 l 671 178 l 671 0 l 1321 0 l 1321 171 l 842 171 l 842 473 l 1255 473 l 1255 644 l 842 644 l 842 924 z m 368 331 l 671 924 l 671 331 z "},"B":{"ha":889,"x_min":0,"x_max":0,"o":"m 597 616 b 720 812 637 616 720 694 b 404 1093 720 958 592 1093 l 105 1093 l 105 0 l 514 0 b 858 333 731 0 858 165 b 597 616 858 503 720 616 z m 414 926 b 559 790 491 926 559 868 b 412 654 559 712 496 654 l 276 654 l 276 926 z m 498 168 l 276 168 l 276 503 l 496 503 b 690 345 620 503 690 427 b 498 168 690 239 597 168 z "},"C":{"ha":1028,"x_min":0,"x_max":0,"o":"m 620 -18 b 997 146 783 -18 903 54 l 898 285 b 614 155 823 210 726 155 b 227 545 418 155 227 325 b 614 938 227 764 416 938 b 897 810 721 938 821 887 l 997 945 b 617 1112 890 1050 759 1110 b 53 546 310 1112 53 854 b 620 -18 53 237 310 -18 z "},"Ć":{"ha":1028,"x_min":0,"x_max":0,"o":"m 593 1183 l 755 1405 l 604 1405 l 469 1183 z m 620 -18 b 997 146 783 -18 903 54 l 898 285 b 614 155 823 210 726 155 b 227 545 418 155 227 325 b 614 938 227 764 416 938 b 897 810 721 938 821 887 l 997 945 b 617 1112 890 1050 759 1110 b 53 546 310 1112 53 854 b 620 -18 53 237 310 -18 z "},"Č":{"ha":1028,"x_min":0,"x_max":0,"o":"m 313 1392 l 526 1194 l 621 1194 l 836 1392 l 697 1392 l 574 1275 l 451 1392 z m 620 -18 b 997 146 783 -18 903 54 l 898 285 b 614 155 823 210 726 155 b 227 545 418 155 227 325 b 614 938 227 764 416 938 b 897 810 721 938 821 887 l 997 945 b 617 1112 890 1050 759 1110 b 53 546 310 1112 53 854 b 620 -18 53 237 310 -18 z "},"Ç":{"ha":1028,"x_min":0,"x_max":0,"o":"m 997 146 l 898 285 b 614 155 823 210 726 155 b 227 545 418 155 227 325 b 614 938 227 764 416 938 b 897 810 721 938 821 887 l 997 945 b 617 1112 890 1050 759 1110 b 53 546 310 1112 53 854 b 553 -14 53 260 274 20 l 479 -112 l 502 -142 b 542 -138 517 -139 530 -138 b 600 -176 585 -138 600 -155 b 412 -248 600 -217 543 -244 l 455 -353 b 718 -172 610 -350 718 -267 b 623 -73 718 -115 678 -73 b 593 -75 612 -73 604 -74 l 637 -18 b 997 146 791 -12 906 57 z "},"Ċ":{"ha":1028,"x_min":0,"x_max":0,"o":"m 574 1217 b 656 1297 618 1217 656 1253 b 574 1379 656 1341 618 1379 b 493 1297 530 1379 493 1341 b 574 1217 493 1253 529 1217 z m 620 -18 b 997 146 783 -18 903 54 l 898 285 b 614 155 823 210 726 155 b 227 545 418 155 227 325 b 614 938 227 764 416 938 b 897 810 721 938 821 887 l 997 945 b 617 1112 890 1050 759 1110 b 53 546 310 1112 53 854 b 620 -18 53 237 310 -18 z "},"D":{"ha":1032,"x_min":0,"x_max":0,"o":"m 416 1093 l 105 1093 l 105 0 l 416 0 b 980 545 764 0 980 210 b 416 1093 980 884 764 1094 z m 418 171 l 276 171 l 276 923 l 416 923 b 806 546 656 923 806 778 b 418 171 806 315 656 171 z "},"Ð":{"ha":1087,"x_min":0,"x_max":0,"o":"m 471 1093 l 160 1093 l 160 600 l 32 600 l 32 485 l 160 485 l 160 0 l 471 0 b 1034 545 818 0 1034 210 b 471 1093 1034 884 818 1094 z m 473 171 l 331 171 l 331 485 l 542 485 l 542 599 l 331 599 l 331 923 l 471 923 b 861 546 711 923 861 778 b 473 171 861 315 711 171 z "},"Ď":{"ha":1032,"x_min":0,"x_max":0,"o":"m 567 1194 l 782 1392 l 643 1392 l 519 1275 l 397 1392 l 258 1392 l 471 1194 z m 416 1093 l 105 1093 l 105 0 l 416 0 b 980 545 764 0 980 210 b 416 1093 980 884 764 1094 z m 418 171 l 276 171 l 276 923 l 416 923 b 806 546 656 923 806 778 b 418 171 806 315 656 171 z "},"Đ":{"ha":1087,"x_min":0,"x_max":0,"o":"m 471 1093 l 160 1093 l 160 600 l 32 600 l 32 485 l 160 485 l 160 0 l 471 0 b 1034 545 818 0 1034 210 b 471 1093 1034 884 818 1094 z m 473 171 l 331 171 l 331 485 l 542 485 l 542 599 l 331 599 l 331 923 l 471 923 b 861 546 711 923 861 778 b 473 171 861 315 711 171 z "},"E":{"ha":829,"x_min":0,"x_max":0,"o":"m 756 924 l 756 1093 l 105 1093 l 105 0 l 756 0 l 756 171 l 277 171 l 277 473 l 690 473 l 690 644 l 277 644 l 277 924 z "},"É":{"ha":829,"x_min":0,"x_max":0,"o":"m 597 1405 l 446 1405 l 312 1183 l 436 1183 z m 756 924 l 756 1093 l 105 1093 l 105 0 l 756 0 l 756 171 l 277 171 l 277 473 l 690 473 l 690 644 l 277 644 l 277 924 z "},"Ĕ":{"ha":829,"x_min":0,"x_max":0,"o":"m 416 1195 b 611 1390 524 1195 611 1282 l 528 1390 b 416 1274 528 1326 478 1274 b 306 1390 355 1274 306 1326 l 222 1390 b 416 1195 222 1282 310 1195 z m 756 924 l 756 1093 l 105 1093 l 105 0 l 756 0 l 756 171 l 277 171 l 277 473 l 690 473 l 690 644 l 277 644 l 277 924 z "},"Ě":{"ha":829,"x_min":0,"x_max":0,"o":"m 464 1194 l 679 1392 l 540 1392 l 416 1275 l 294 1392 l 155 1392 l 368 1194 z m 756 924 l 756 1093 l 105 1093 l 105 0 l 756 0 l 756 171 l 277 171 l 277 473 l 690 473 l 690 644 l 277 644 l 277 924 z "},"Ê":{"ha":829,"x_min":0,"x_max":0,"o":"m 416 1310 l 539 1194 l 679 1194 l 464 1392 l 368 1392 l 155 1194 l 293 1194 z m 756 924 l 756 1093 l 105 1093 l 105 0 l 756 0 l 756 171 l 277 171 l 277 473 l 690 473 l 690 644 l 277 644 l 277 924 z "},"Ë":{"ha":829,"x_min":0,"x_max":0,"o":"m 265 1217 b 336 1287 304 1217 336 1249 b 265 1359 336 1326 304 1359 b 194 1287 227 1359 194 1326 b 265 1217 194 1249 227 1217 z m 569 1217 b 641 1287 608 1217 641 1249 b 569 1359 641 1326 608 1359 b 498 1287 531 1359 498 1326 b 569 1217 498 1249 530 1217 z m 756 924 l 756 1093 l 105 1093 l 105 0 l 756 0 l 756 171 l 277 171 l 277 473 l 690 473 l 690 644 l 277 644 l 277 924 z "},"Ė":{"ha":829,"x_min":0,"x_max":0,"o":"m 417 1217 b 498 1297 461 1217 498 1253 b 417 1379 498 1341 461 1379 b 336 1297 372 1379 336 1341 b 417 1217 336 1253 372 1217 z m 756 924 l 756 1093 l 105 1093 l 105 0 l 756 0 l 756 171 l 277 171 l 277 473 l 690 473 l 690 644 l 277 644 l 277 924 z "},"È":{"ha":829,"x_min":0,"x_max":0,"o":"m 559 1183 l 425 1405 l 274 1405 l 435 1183 z m 756 924 l 756 1093 l 105 1093 l 105 0 l 756 0 l 756 171 l 277 171 l 277 473 l 690 473 l 690 644 l 277 644 l 277 924 z "},"Ē":{"ha":829,"x_min":0,"x_max":0,"o":"m 611 1319 l 223 1319 l 223 1230 l 611 1230 z m 756 924 l 756 1093 l 105 1093 l 105 0 l 756 0 l 756 171 l 277 171 l 277 473 l 690 473 l 690 644 l 277 644 l 277 924 z "},"Ę":{"ha":829,"x_min":0,"x_max":0,"o":"m 750 -227 b 678 -237 720 -234 692 -237 b 609 -172 617 -237 609 -191 b 764 -1 609 -113 669 -63 l 756 1 l 756 171 l 277 171 l 277 473 l 690 473 l 690 644 l 277 644 l 277 924 l 756 924 l 756 1093 l 105 1093 l 105 0 l 645 0 b 486 -211 559 -39 486 -116 b 667 -358 486 -302 553 -358 b 772 -345 697 -358 733 -354 z "},"F":{"ha":787,"x_min":0,"x_max":0,"o":"m 756 925 l 756 1096 l 105 1096 l 105 -1 l 277 -1 l 277 462 l 690 462 l 690 633 l 277 633 l 277 925 z "},"G":{"ha":1196,"x_min":0,"x_max":0,"o":"m 1139 597 l 621 597 l 621 439 l 960 439 l 960 436 b 631 155 960 269 819 155 b 227 545 397 155 227 331 b 615 939 227 772 416 939 b 920 802 719 939 834 886 l 1015 944 b 617 1112 912 1044 755 1111 b 53 545 307 1112 53 856 b 623 -18 53 235 305 -18 b 1143 511 907 -18 1143 186 b 1139 597 1143 542 1141 572 z "},"Ğ":{"ha":1196,"x_min":0,"x_max":0,"o":"m 612 1195 b 806 1390 719 1195 806 1282 l 724 1390 b 612 1274 724 1326 673 1274 b 501 1390 551 1274 501 1326 l 418 1390 b 612 1195 418 1282 505 1195 z m 1139 597 l 621 597 l 621 439 l 960 439 l 960 436 b 631 155 960 269 819 155 b 227 545 397 155 227 331 b 615 939 227 772 416 939 b 920 802 719 939 834 886 l 1015 944 b 617 1112 912 1044 755 1111 b 53 545 307 1112 53 856 b 623 -18 53 235 305 -18 b 1143 511 907 -18 1143 186 b 1139 597 1143 542 1141 572 z "},"Ģ":{"ha":1196,"x_min":0,"x_max":0,"o":"m 1139 597 l 621 597 l 621 439 l 960 439 l 960 436 b 631 155 960 269 819 155 b 227 545 397 155 227 331 b 615 939 227 772 416 939 b 920 802 719 939 834 886 l 1015 944 b 617 1112 912 1044 755 1111 b 53 545 307 1112 53 856 b 623 -18 53 235 305 -18 b 1143 511 907 -18 1143 186 b 1139 597 1143 542 1141 572 z m 618 -79 b 535 -153 570 -79 535 -113 b 607 -218 535 -194 574 -218 b 616 -252 614 -227 616 -236 b 522 -348 616 -321 553 -348 b 564 -368 522 -355 537 -368 b 706 -188 641 -368 706 -288 b 618 -79 706 -113 663 -79 z "},"Ġ":{"ha":1196,"x_min":0,"x_max":0,"o":"m 612 1217 b 694 1297 656 1217 694 1253 b 612 1379 694 1341 656 1379 b 531 1297 568 1379 531 1341 b 612 1217 531 1253 567 1217 z m 1139 597 l 621 597 l 621 439 l 960 439 l 960 436 b 631 155 960 269 819 155 b 227 545 397 155 227 331 b 615 939 227 772 416 939 b 920 802 719 939 834 886 l 1015 944 b 617 1112 912 1044 755 1111 b 53 545 307 1112 53 856 b 623 -18 53 235 305 -18 b 1143 511 907 -18 1143 186 b 1139 597 1143 542 1141 572 z "},"H":{"ha":1026,"x_min":0,"x_max":0,"o":"m 749 1093 l 749 632 l 276 632 l 276 1093 l 105 1093 l 105 0 l 276 0 l 276 462 l 749 462 l 749 0 l 921 0 l 921 1093 z "},"Ħ":{"ha":1026,"x_min":0,"x_max":0,"o":"m 1015 897 l 921 897 l 921 1093 l 749 1093 l 749 897 l 276 897 l 276 1093 l 105 1093 l 105 897 l 20 897 l 20 772 l 105 772 l 105 0 l 276 0 l 276 462 l 749 462 l 749 0 l 921 0 l 921 772 l 1015 772 z m 749 632 l 276 632 l 276 772 l 749 772 z "},"I":{"ha":382,"x_min":0,"x_max":0,"o":"m 105 0 l 277 0 l 277 1093 l 105 1093 z "},"Í":{"ha":382,"x_min":0,"x_max":0,"o":"m 210 1183 l 372 1405 l 220 1405 l 86 1183 z m 105 0 l 277 0 l 277 1093 l 105 1093 z "},"Î":{"ha":382,"x_min":0,"x_max":0,"o":"m -71 1194 l 67 1194 l 190 1310 l 313 1194 l 453 1194 l 238 1392 l 142 1392 z m 105 0 l 277 0 l 277 1093 l 105 1093 z "},"Ï":{"ha":382,"x_min":0,"x_max":0,"o":"m 39 1217 b 110 1287 77 1217 110 1249 b 39 1359 110 1326 77 1359 b -33 1287 -1 1359 -33 1326 b 39 1217 -33 1249 -1 1217 z m 342 1217 b 414 1287 382 1217 414 1249 b 342 1359 414 1326 382 1359 b 272 1287 304 1359 272 1326 b 342 1217 272 1249 304 1217 z m 105 0 l 277 0 l 277 1093 l 105 1093 z "},"İ":{"ha":382,"x_min":0,"x_max":0,"o":"m 191 1217 b 273 1297 235 1217 273 1253 b 191 1379 273 1341 235 1379 b 110 1297 146 1379 110 1341 b 191 1217 110 1253 146 1217 z m 105 0 l 277 0 l 277 1093 l 105 1093 z "},"Ì":{"ha":382,"x_min":0,"x_max":0,"o":"m 210 1183 l 334 1183 l 199 1405 l 48 1405 z m 105 0 l 277 0 l 277 1093 l 105 1093 z "},"Ī":{"ha":382,"x_min":0,"x_max":0,"o":"m -3 1230 l 385 1230 l 385 1319 l -3 1319 z m 105 0 l 277 0 l 277 1093 l 105 1093 z "},"Į":{"ha":382,"x_min":0,"x_max":0,"o":"m 275 -224 b 203 -234 245 -231 217 -234 b 134 -169 142 -234 134 -189 b 290 2 134 -110 195 -60 l 277 5 l 277 1093 l 105 1093 l 105 0 l 164 0 b 11 -208 81 -40 11 -115 b 192 -355 11 -300 78 -355 b 297 -342 222 -355 258 -351 z "},"J":{"ha":815,"x_min":0,"x_max":0,"o":"m 277 -21 l 285 -21 b 721 417 526 -21 721 172 l 718 1093 l 546 1093 l 549 418 b 283 150 549 273 430 150 l 279 150 b 119 205 217 150 159 171 l 32 54 b 277 -21 100 7 189 -21 z "},"K":{"ha":901,"x_min":0,"x_max":0,"o":"m 890 0 l 463 557 l 851 1093 l 652 1093 l 276 570 l 276 1093 l 105 1093 l 105 0 l 276 0 l 276 529 l 680 0 z "},"Ķ":{"ha":901,"x_min":0,"x_max":0,"o":"m 463 557 l 851 1093 l 652 1093 l 276 570 l 276 1093 l 105 1093 l 105 0 l 276 0 l 276 529 l 680 0 l 890 0 z m 476 -79 b 393 -153 428 -79 393 -113 b 465 -218 393 -194 432 -218 b 474 -252 472 -227 474 -236 b 379 -348 474 -321 411 -348 b 421 -368 379 -355 395 -368 b 564 -188 498 -368 564 -288 b 476 -79 564 -113 521 -79 z "},"L":{"ha":796,"x_min":0,"x_max":0,"o":"m 277 171 l 277 1093 l 105 1093 l 105 0 l 764 0 l 764 171 z "},"Ĺ":{"ha":796,"x_min":0,"x_max":0,"o":"m 594 1405 l 443 1405 l 309 1183 l 433 1183 z m 277 171 l 277 1093 l 105 1093 l 105 0 l 764 0 l 764 171 z "},"Ľ":{"ha":796,"x_min":0,"x_max":0,"o":"m 564 1143 l 429 1143 l 375 831 l 484 831 z m 277 171 l 277 1093 l 105 1093 l 105 0 l 764 0 l 764 171 z "},"Ļ":{"ha":796,"x_min":0,"x_max":0,"o":"m 277 171 l 277 1093 l 105 1093 l 105 0 l 764 0 l 764 171 z m 420 -79 b 336 -153 372 -79 336 -113 b 408 -218 336 -194 376 -218 b 418 -252 416 -227 418 -236 b 323 -348 418 -321 355 -348 b 365 -368 323 -355 338 -368 b 507 -188 442 -368 507 -288 b 420 -79 507 -113 465 -79 z "},"Ł":{"ha":796,"x_min":0,"x_max":0,"o":"m 277 171 l 277 522 l 426 629 l 426 766 l 277 660 l 277 1093 l 105 1093 l 105 536 l -39 433 l -39 296 l 105 399 l 105 0 l 764 0 l 764 171 z "},"M":{"ha":1281,"x_min":0,"x_max":0,"o":"m 1163 1117 l 641 322 l 118 1117 l 105 1117 l 105 0 l 277 0 l 277 607 l 640 18 l 642 18 l 1004 606 l 1004 0 l 1176 0 l 1176 1117 z "},"N":{"ha":1089,"x_min":0,"x_max":0,"o":"m 812 1096 l 812 383 l 114 1112 l 105 1112 l 105 -1 l 277 -1 l 277 711 l 976 -19 l 984 -19 l 984 1096 z "},"Ń":{"ha":1089,"x_min":0,"x_max":0,"o":"m 725 1405 l 574 1405 l 439 1183 l 564 1183 z m 812 1096 l 812 383 l 114 1112 l 105 1112 l 105 -1 l 277 -1 l 277 711 l 976 -19 l 984 -19 l 984 1096 z "},"Ň":{"ha":1089,"x_min":0,"x_max":0,"o":"m 591 1194 l 806 1392 l 667 1392 l 544 1275 l 421 1392 l 283 1392 l 496 1194 z m 812 1096 l 812 383 l 114 1112 l 105 1112 l 105 -1 l 277 -1 l 277 711 l 976 -19 l 984 -19 l 984 1096 z "},"Ņ":{"ha":1089,"x_min":0,"x_max":0,"o":"m 812 1096 l 812 383 l 114 1112 l 105 1112 l 105 -1 l 277 -1 l 277 711 l 976 -19 l 984 -19 l 984 1096 z m 551 -79 b 467 -153 503 -79 467 -113 b 539 -218 467 -194 507 -218 b 549 -252 547 -227 549 -236 b 454 -348 549 -321 486 -348 b 496 -368 454 -355 469 -368 b 638 -188 573 -368 638 -288 b 551 -79 638 -113 595 -79 z "},"Ŋ":{"ha":1089,"x_min":0,"x_max":0,"o":"m 812 1096 l 812 383 l 114 1112 l 105 1112 l 105 -1 l 277 -1 l 277 711 l 821 143 l 821 -24 b 692 -255 821 -147 774 -212 l 804 -344 b 984 -20 920 -273 984 -159 l 984 1096 z "},"Ñ":{"ha":1089,"x_min":0,"x_max":0,"o":"m 442 1292 b 647 1200 513 1292 545 1200 b 811 1347 699 1200 784 1221 l 727 1379 b 648 1291 713 1326 690 1291 b 442 1383 576 1291 545 1383 b 278 1237 391 1383 305 1362 l 363 1204 b 442 1292 376 1257 399 1292 z m 812 1096 l 812 383 l 114 1112 l 105 1112 l 105 -1 l 277 -1 l 277 711 l 976 -19 l 984 -19 l 984 1096 z "},"O":{"ha":1236,"x_min":0,"x_max":0,"o":"m 617 -18 b 1183 545 928 -18 1183 236 b 618 1112 1183 857 928 1112 b 53 545 307 1112 53 857 b 617 -18 53 236 307 -18 z m 617 156 b 226 547 401 156 226 332 b 617 939 226 763 401 939 b 1010 547 833 939 1010 763 b 617 156 1010 332 833 156 z "},"Ó":{"ha":1236,"x_min":0,"x_max":0,"o":"m 637 1183 l 798 1405 l 647 1405 l 513 1183 z m 617 -18 b 1183 545 928 -18 1183 236 b 618 1112 1183 857 928 1112 b 53 545 307 1112 53 857 b 617 -18 53 236 307 -18 z m 617 156 b 226 547 401 156 226 332 b 617 939 226 763 401 939 b 1010 547 833 939 1010 763 b 617 156 1010 332 833 156 z "},"Ô":{"ha":1236,"x_min":0,"x_max":0,"o":"m 355 1194 l 494 1194 l 616 1310 l 740 1194 l 880 1194 l 665 1392 l 568 1392 z m 617 -18 b 1183 545 928 -18 1183 236 b 618 1112 1183 857 928 1112 b 53 545 307 1112 53 857 b 617 -18 53 236 307 -18 z m 617 156 b 226 547 401 156 226 332 b 617 939 226 763 401 939 b 1010 547 833 939 1010 763 b 617 156 1010 332 833 156 z "},"Ö":{"ha":1236,"x_min":0,"x_max":0,"o":"m 466 1217 b 537 1287 505 1217 537 1249 b 466 1359 537 1326 505 1359 b 395 1287 427 1359 395 1326 b 466 1217 395 1249 427 1217 z m 770 1217 b 842 1287 809 1217 842 1249 b 770 1359 842 1326 809 1359 b 699 1287 732 1359 699 1326 b 770 1217 699 1249 731 1217 z m 617 -18 b 1183 545 928 -18 1183 236 b 618 1112 1183 857 928 1112 b 53 545 307 1112 53 857 b 617 -18 53 236 307 -18 z m 617 156 b 226 547 401 156 226 332 b 617 939 226 763 401 939 b 1010 547 833 939 1010 763 b 617 156 1010 332 833 156 z "},"Ò":{"ha":1236,"x_min":0,"x_max":0,"o":"m 636 1183 l 760 1183 l 626 1405 l 475 1405 z m 617 -18 b 1183 545 928 -18 1183 236 b 618 1112 1183 857 928 1112 b 53 545 307 1112 53 857 b 617 -18 53 236 307 -18 z m 617 156 b 226 547 401 156 226 332 b 617 939 226 763 401 939 b 1010 547 833 939 1010 763 b 617 156 1010 332 833 156 z "},"Ő":{"ha":1236,"x_min":0,"x_max":0,"o":"m 414 1182 l 523 1182 l 654 1404 l 519 1404 z m 628 1182 l 742 1182 l 916 1404 l 770 1404 z m 617 -18 b 1183 545 928 -18 1183 236 b 618 1112 1183 857 928 1112 b 53 545 307 1112 53 857 b 617 -18 53 236 307 -18 z m 617 156 b 226 547 401 156 226 332 b 617 939 226 763 401 939 b 1010 547 833 939 1010 763 b 617 156 1010 332 833 156 z "},"Ō":{"ha":1236,"x_min":0,"x_max":0,"o":"m 424 1230 l 812 1230 l 812 1319 l 424 1319 z m 617 -18 b 1183 545 928 -18 1183 236 b 618 1112 1183 857 928 1112 b 53 545 307 1112 53 857 b 617 -18 53 236 307 -18 z m 617 156 b 226 547 401 156 226 332 b 617 939 226 763 401 939 b 1010 547 833 939 1010 763 b 617 156 1010 332 833 156 z "},"Ø":{"ha":1236,"x_min":0,"x_max":0,"o":"m 993 969 l 1096 1118 l 951 1118 l 896 1038 b 618 1112 813 1085 718 1112 b 53 545 307 1112 53 857 b 256 114 53 373 132 218 l 138 -56 l 283 -56 l 355 47 b 617 -18 433 6 523 -18 b 1183 545 928 -18 1183 236 b 993 969 1183 713 1109 865 z m 226 547 b 617 939 226 763 401 939 b 797 896 682 939 743 924 l 355 257 b 226 547 275 329 226 432 z m 617 156 b 455 191 559 156 505 169 l 893 825 b 1010 547 965 754 1010 655 b 617 156 1010 332 833 156 z "},"Õ":{"ha":1236,"x_min":0,"x_max":0,"o":"m 436 1204 b 515 1292 449 1257 473 1292 b 720 1200 587 1292 618 1200 b 884 1347 772 1200 857 1221 l 800 1379 b 721 1291 787 1326 763 1291 b 515 1383 650 1291 618 1383 b 351 1237 464 1383 378 1362 z m 617 -18 b 1183 545 928 -18 1183 236 b 618 1112 1183 857 928 1112 b 53 545 307 1112 53 857 b 617 -18 53 236 307 -18 z m 617 156 b 226 547 401 156 226 332 b 617 939 226 763 401 939 b 1010 547 833 939 1010 763 b 617 156 1010 332 833 156 z "},"Œ":{"ha":1713,"x_min":0,"x_max":0,"o":"m 1640 924 l 1640 1093 l 989 1093 l 989 940 b 598 1112 895 1048 758 1112 b 53 545 303 1112 53 857 b 597 -18 53 236 303 -18 b 989 155 758 -18 895 48 l 989 0 l 1640 0 l 1640 171 l 1160 171 l 1160 473 l 1574 473 l 1574 644 l 1160 644 l 1160 924 z m 608 156 b 226 547 398 156 226 332 b 608 939 226 763 398 939 b 989 547 812 939 989 778 b 608 156 989 321 812 156 z "},"P":{"ha":886,"x_min":0,"x_max":0,"o":"m 105 0 l 277 0 l 277 379 l 471 379 b 855 732 682 379 855 538 b 471 1093 855 931 682 1093 l 105 1093 z m 471 549 l 277 549 l 277 923 l 471 923 b 684 734 588 923 684 838 b 471 549 684 631 588 548 z "},"Þ":{"ha":880,"x_min":0,"x_max":0,"o":"m 105 0 l 276 0 l 276 208 l 468 208 b 827 553 668 208 827 361 b 468 899 827 745 668 899 l 276 899 l 276 1093 l 105 1093 z m 276 366 l 276 741 l 468 741 b 669 553 578 741 669 656 b 468 366 669 450 578 366 z "},"Q":{"ha":1236,"x_min":0,"x_max":0,"o":"m 1183 545 b 618 1112 1183 857 928 1112 b 53 545 307 1112 53 857 b 617 -18 53 236 307 -18 b 876 45 710 -18 798 5 b 1155 -52 947 -7 1035 -46 l 1173 116 b 1017 148 1112 119 1061 130 b 1183 545 1120 250 1183 391 z m 226 547 b 617 939 226 763 401 939 b 1010 547 833 939 1010 763 b 870 248 1010 427 956 320 b 467 524 752 363 679 513 l 456 376 b 740 176 579 370 652 275 b 617 156 701 163 660 156 b 226 547 401 156 226 332 z "},"R":{"ha":927,"x_min":0,"x_max":0,"o":"m 917 0 l 599 437 b 815 742 724 478 815 601 b 445 1093 815 937 648 1093 l 105 1093 l 106 0 l 277 0 l 277 423 l 412 423 l 706 0 z m 277 566 l 277 923 l 449 923 b 638 746 551 923 638 848 b 449 566 638 648 552 565 z "},"Ŕ":{"ha":927,"x_min":0,"x_max":0,"o":"m 651 1405 l 500 1405 l 366 1183 l 490 1183 z m 917 0 l 599 437 b 815 742 724 478 815 601 b 445 1093 815 937 648 1093 l 105 1093 l 106 0 l 277 0 l 277 423 l 412 423 l 706 0 z m 277 566 l 277 923 l 449 923 b 638 746 551 923 638 848 b 449 566 638 648 552 565 z "},"Ř":{"ha":927,"x_min":0,"x_max":0,"o":"m 517 1194 l 732 1392 l 593 1392 l 469 1275 l 347 1392 l 208 1392 l 421 1194 z m 917 0 l 599 437 b 815 742 724 478 815 601 b 445 1093 815 937 648 1093 l 105 1093 l 106 0 l 277 0 l 277 423 l 412 423 l 706 0 z m 277 566 l 277 923 l 449 923 b 638 746 551 923 638 848 b 449 566 638 648 552 565 z "},"Ŗ":{"ha":927,"x_min":0,"x_max":0,"o":"m 599 437 b 815 742 724 478 815 601 b 445 1093 815 937 648 1093 l 105 1093 l 106 0 l 277 0 l 277 423 l 412 423 l 706 0 l 917 0 z m 277 566 l 277 923 l 449 923 b 638 746 551 923 638 848 b 449 566 638 648 552 565 z m 476 -79 b 393 -153 428 -79 393 -113 b 465 -218 393 -194 432 -218 b 474 -252 472 -227 474 -236 b 379 -348 474 -321 411 -348 b 421 -368 379 -355 395 -368 b 564 -188 498 -368 564 -288 b 476 -79 564 -113 521 -79 z "},"S":{"ha":852,"x_min":0,"x_max":0,"o":"m 420 -18 b 810 300 642 -18 810 106 b 503 632 810 473 676 556 b 269 805 370 689 269 720 b 450 945 269 882 349 945 b 638 829 529 945 604 903 l 766 918 b 448 1113 721 1038 604 1113 b 96 809 252 1113 96 988 b 367 514 96 637 239 571 b 638 297 494 459 638 398 b 422 155 638 214 545 155 b 178 289 317 155 227 203 l 42 192 b 420 -18 104 66 241 -18 z "},"Ś":{"ha":852,"x_min":0,"x_max":0,"o":"m 452 1183 l 613 1405 l 462 1405 l 328 1183 z m 420 -18 b 810 300 642 -18 810 106 b 503 632 810 473 676 556 b 269 805 370 689 269 720 b 450 945 269 882 349 945 b 638 829 529 945 604 903 l 766 918 b 448 1113 721 1038 604 1113 b 96 809 252 1113 96 988 b 367 514 96 637 239 571 b 638 297 494 459 638 398 b 422 155 638 214 545 155 b 178 289 317 155 227 203 l 42 192 b 420 -18 104 66 241 -18 z "},"Š":{"ha":852,"x_min":0,"x_max":0,"o":"m 170 1392 l 383 1194 l 479 1194 l 694 1392 l 555 1392 l 431 1275 l 309 1392 z m 420 -18 b 810 300 642 -18 810 106 b 503 632 810 473 676 556 b 269 805 370 689 269 720 b 450 945 269 882 349 945 b 638 829 529 945 604 903 l 766 918 b 448 1113 721 1038 604 1113 b 96 809 252 1113 96 988 b 367 514 96 637 239 571 b 638 297 494 459 638 398 b 422 155 638 214 545 155 b 178 289 317 155 227 203 l 42 192 b 420 -18 104 66 241 -18 z "},"Ş":{"ha":852,"x_min":0,"x_max":0,"o":"m 810 300 b 503 632 810 473 676 556 b 269 805 370 689 269 720 b 450 945 269 882 349 945 b 638 829 529 945 604 903 l 766 918 b 448 1113 721 1038 604 1113 b 96 809 252 1113 96 988 b 367 514 96 637 239 571 b 638 297 494 459 638 398 b 422 155 638 214 545 155 b 178 289 317 155 227 203 l 42 192 b 391 -18 101 73 226 -9 l 319 -112 l 342 -142 b 382 -138 357 -139 371 -138 b 441 -176 425 -138 441 -155 b 252 -248 441 -217 384 -244 l 296 -353 b 559 -172 450 -350 559 -267 b 464 -73 559 -115 519 -73 b 433 -75 453 -73 445 -74 l 479 -16 b 810 300 671 5 810 124 z "},"Ș":{"ha":852,"x_min":0,"x_max":0,"o":"m 420 -18 b 810 300 642 -18 810 106 b 503 632 810 473 676 556 b 269 805 370 689 269 720 b 450 945 269 882 349 945 b 638 829 529 945 604 903 l 766 918 b 448 1113 721 1038 604 1113 b 96 809 252 1113 96 988 b 367 514 96 637 239 571 b 638 297 494 459 638 398 b 422 155 638 214 545 155 b 178 289 317 155 227 203 l 42 192 b 420 -18 104 66 241 -18 z m 383 -368 b 526 -188 460 -368 526 -288 b 438 -79 526 -113 483 -79 b 355 -153 390 -79 355 -113 b 427 -218 355 -194 394 -218 b 436 -252 434 -227 436 -236 b 341 -348 436 -321 373 -348 b 383 -368 341 -355 357 -368 z "},"ß":{"ha":1200,"x_min":0,"x_max":0,"o":"m 894 671 b 774 715 848 694 809 708 l 1010 991 b 579 1116 879 1077 722 1116 b 105 720 304 1116 105 975 l 105 0 l 278 0 l 278 720 b 545 957 278 867 391 957 b 740 908 612 957 680 941 l 542 647 b 788 543 629 625 739 570 b 996 309 895 484 996 398 b 791 151 996 212 915 151 b 536 316 683 151 607 208 l 416 197 b 787 -22 497 52 619 -22 b 1168 316 1031 -22 1168 119 b 894 671 1168 465 1081 581 z "},"Ə":{"ha":1209,"x_min":0,"x_max":0,"o":"m 608 -8 b 1156 545 911 -8 1156 238 b 603 1101 1156 848 916 1103 b 297 1008 494 1101 378 1061 l 391 863 b 600 928 450 904 527 928 b 968 632 781 928 932 803 l 61 632 b 53 547 56 606 53 574 b 608 -8 53 238 295 -8 z m 608 165 b 239 459 412 165 271 300 l 968 459 b 608 165 934 292 782 165 z "},"T":{"ha":821,"x_min":0,"x_max":0,"o":"m 790 1093 l 32 1093 l 32 923 l 325 923 l 325 0 l 497 0 l 497 923 l 790 923 z "},"Ŧ":{"ha":821,"x_min":0,"x_max":0,"o":"m 790 923 l 790 1093 l 32 1093 l 32 923 l 325 923 l 325 608 l 149 608 l 149 485 l 325 485 l 325 0 l 497 0 l 497 485 l 673 485 l 673 608 l 497 608 l 497 923 z "},"Ť":{"ha":821,"x_min":0,"x_max":0,"o":"m 458 1194 l 673 1392 l 534 1392 l 410 1275 l 288 1392 l 149 1392 l 362 1194 z m 790 1093 l 32 1093 l 32 923 l 325 923 l 325 0 l 497 0 l 497 923 l 790 923 z "},"Ţ":{"ha":821,"x_min":0,"x_max":0,"o":"m 497 0 l 497 923 l 790 923 l 790 1093 l 32 1093 l 32 923 l 325 923 l 325 0 l 382 0 l 298 -112 l 321 -142 b 361 -138 336 -139 350 -138 b 420 -176 404 -138 420 -155 b 231 -248 420 -217 363 -244 l 275 -353 b 538 -172 429 -350 538 -267 b 443 -73 538 -115 498 -73 b 412 -75 432 -73 424 -74 l 470 0 z "},"Ț":{"ha":821,"x_min":0,"x_max":0,"o":"m 32 1093 l 32 923 l 325 923 l 325 0 l 497 0 l 497 923 l 790 923 l 790 1093 z m 416 -79 b 333 -153 368 -79 333 -113 b 405 -218 333 -194 372 -218 b 414 -252 412 -227 414 -236 b 319 -348 414 -321 351 -348 b 361 -368 319 -355 335 -368 b 504 -188 439 -368 504 -288 b 416 -79 504 -113 461 -79 z "},"U":{"ha":1016,"x_min":0,"x_max":0,"o":"m 508 -20 b 922 414 741 -20 922 163 l 922 1093 l 749 1093 l 749 415 b 507 153 749 264 641 153 b 267 415 374 153 267 264 l 267 1093 l 95 1093 l 95 414 b 508 -20 95 163 275 -20 z "},"Ú":{"ha":1016,"x_min":0,"x_max":0,"o":"m 527 1183 l 688 1405 l 537 1405 l 403 1183 z m 508 -20 b 922 414 741 -20 922 163 l 922 1093 l 749 1093 l 749 415 b 507 153 749 264 641 153 b 267 415 374 153 267 264 l 267 1093 l 95 1093 l 95 414 b 508 -20 95 163 275 -20 z "},"Û":{"ha":1016,"x_min":0,"x_max":0,"o":"m 246 1194 l 385 1194 l 507 1310 l 631 1194 l 770 1194 l 555 1392 l 459 1392 z m 508 -20 b 922 414 741 -20 922 163 l 922 1093 l 749 1093 l 749 415 b 507 153 749 264 641 153 b 267 415 374 153 267 264 l 267 1093 l 95 1093 l 95 414 b 508 -20 95 163 275 -20 z "},"Ü":{"ha":1016,"x_min":0,"x_max":0,"o":"m 356 1217 b 427 1287 395 1217 427 1249 b 356 1359 427 1326 395 1359 b 285 1287 317 1359 285 1326 b 356 1217 285 1249 317 1217 z m 660 1217 b 732 1287 699 1217 732 1249 b 660 1359 732 1326 699 1359 b 589 1287 622 1359 589 1326 b 660 1217 589 1249 621 1217 z m 508 -20 b 922 414 741 -20 922 163 l 922 1093 l 749 1093 l 749 415 b 507 153 749 264 641 153 b 267 415 374 153 267 264 l 267 1093 l 95 1093 l 95 414 b 508 -20 95 163 275 -20 z "},"Ù":{"ha":1016,"x_min":0,"x_max":0,"o":"m 527 1183 l 651 1183 l 517 1405 l 366 1405 z m 508 -20 b 922 414 741 -20 922 163 l 922 1093 l 749 1093 l 749 415 b 507 153 749 264 641 153 b 267 415 374 153 267 264 l 267 1093 l 95 1093 l 95 414 b 508 -20 95 163 275 -20 z "},"Ű":{"ha":1016,"x_min":0,"x_max":0,"o":"m 305 1182 l 414 1182 l 545 1404 l 410 1404 z m 519 1182 l 633 1182 l 806 1404 l 661 1404 z m 508 -20 b 922 414 741 -20 922 163 l 922 1093 l 749 1093 l 749 415 b 507 153 749 264 641 153 b 267 415 374 153 267 264 l 267 1093 l 95 1093 l 95 414 b 508 -20 95 163 275 -20 z "},"Ū":{"ha":1016,"x_min":0,"x_max":0,"o":"m 314 1230 l 702 1230 l 702 1319 l 314 1319 z m 508 -20 b 922 414 741 -20 922 163 l 922 1093 l 749 1093 l 749 415 b 507 153 749 264 641 153 b 267 415 374 153 267 264 l 267 1093 l 95 1093 l 95 414 b 508 -20 95 163 275 -20 z "},"Ų":{"ha":1016,"x_min":0,"x_max":0,"o":"m 749 1093 l 749 415 b 507 153 749 264 641 153 b 267 415 374 153 267 264 l 267 1093 l 95 1093 l 95 414 b 458 -18 95 182 250 7 b 342 -205 392 -60 342 -126 b 523 -352 342 -296 409 -352 b 628 -339 553 -352 589 -348 l 606 -221 b 534 -231 576 -228 548 -231 b 465 -165 473 -231 465 -185 b 595 -12 465 -112 515 -66 b 922 414 785 28 922 196 l 922 1093 z "},"Ů":{"ha":1016,"x_min":0,"x_max":0,"o":"m 508 1162 b 653 1308 587 1162 653 1229 b 508 1454 653 1388 587 1454 b 362 1308 428 1454 362 1388 b 508 1162 362 1228 428 1162 z m 508 1236 b 435 1308 468 1236 435 1268 b 508 1380 435 1348 468 1380 b 580 1308 548 1380 580 1348 b 508 1236 580 1268 548 1236 z m 508 -20 b 922 414 741 -20 922 163 l 922 1093 l 749 1093 l 749 415 b 507 153 749 264 641 153 b 267 415 374 153 267 264 l 267 1093 l 95 1093 l 95 414 b 508 -20 95 163 275 -20 z "},"V":{"ha":1050,"x_min":0,"x_max":0,"o":"m 850 1093 l 524 353 l 198 1093 l 16 1093 l 518 -22 l 530 -22 l 1034 1093 z "},"W":{"ha":1314,"x_min":0,"x_max":0,"o":"m 363 -10 l 379 -10 l 655 649 l 935 -10 l 951 -10 l 1298 1093 l 1113 1093 l 911 419 l 661 1047 l 654 1047 l 404 418 l 201 1093 l 16 1093 z "},"Ẃ":{"ha":1314,"x_min":0,"x_max":0,"o":"m 677 1183 l 838 1405 l 687 1405 l 553 1183 z m 363 -10 l 379 -10 l 655 649 l 935 -10 l 951 -10 l 1298 1093 l 1113 1093 l 911 419 l 661 1047 l 654 1047 l 404 418 l 201 1093 l 16 1093 z "},"Ŵ":{"ha":1314,"x_min":0,"x_max":0,"o":"m 395 1194 l 534 1194 l 656 1310 l 780 1194 l 920 1194 l 705 1392 l 608 1392 z m 363 -10 l 379 -10 l 655 649 l 935 -10 l 951 -10 l 1298 1093 l 1113 1093 l 911 419 l 661 1047 l 654 1047 l 404 418 l 201 1093 l 16 1093 z "},"Ẅ":{"ha":1314,"x_min":0,"x_max":0,"o":"m 505 1217 b 576 1287 544 1217 576 1249 b 505 1359 576 1326 544 1359 b 434 1287 467 1359 434 1326 b 505 1217 434 1249 467 1217 z m 809 1217 b 881 1287 848 1217 881 1249 b 809 1359 881 1326 848 1359 b 739 1287 771 1359 739 1326 b 809 1217 739 1249 770 1217 z m 363 -10 l 379 -10 l 655 649 l 935 -10 l 951 -10 l 1298 1093 l 1113 1093 l 911 419 l 661 1047 l 654 1047 l 404 418 l 201 1093 l 16 1093 z "},"Ẁ":{"ha":1314,"x_min":0,"x_max":0,"o":"m 676 1183 l 800 1183 l 666 1405 l 515 1405 z m 363 -10 l 379 -10 l 655 649 l 935 -10 l 951 -10 l 1298 1093 l 1113 1093 l 911 419 l 661 1047 l 654 1047 l 404 418 l 201 1093 l 16 1093 z "},"X":{"ha":934,"x_min":0,"x_max":0,"o":"m 16 0 l 212 0 l 467 412 l 722 0 l 918 0 l 566 568 l 894 1093 l 696 1093 l 467 719 l 237 1093 l 39 1093 l 367 568 z "},"Y":{"ha":928,"x_min":0,"x_max":0,"o":"m 378 0 l 549 0 l 549 467 l 911 1093 l 718 1093 l 463 658 l 209 1093 l 16 1093 l 378 467 z "},"Ý":{"ha":928,"x_min":0,"x_max":0,"o":"m 484 1183 l 645 1405 l 494 1405 l 359 1183 z m 378 0 l 549 0 l 549 467 l 911 1093 l 718 1093 l 463 658 l 209 1093 l 16 1093 l 378 467 z "},"Ŷ":{"ha":928,"x_min":0,"x_max":0,"o":"m 202 1194 l 340 1194 l 463 1310 l 587 1194 l 726 1194 l 511 1392 l 415 1392 z m 378 0 l 549 0 l 549 467 l 911 1093 l 718 1093 l 463 658 l 209 1093 l 16 1093 l 378 467 z "},"ÿ":{"ha":928,"x_min":0,"x_max":0,"o":"m 312 1217 b 383 1287 351 1217 383 1249 b 312 1359 383 1326 351 1359 b 241 1287 273 1359 241 1326 b 312 1217 241 1249 273 1217 z m 616 1217 b 688 1287 655 1217 688 1249 b 616 1359 688 1326 655 1359 b 545 1287 578 1359 545 1326 b 616 1217 545 1249 577 1217 z m 378 0 l 549 0 l 549 467 l 911 1093 l 718 1093 l 463 658 l 209 1093 l 16 1093 l 378 467 z "},"Ỳ":{"ha":928,"x_min":0,"x_max":0,"o":"m 483 1183 l 607 1183 l 473 1405 l 321 1405 z m 378 0 l 549 0 l 549 467 l 911 1093 l 718 1093 l 463 658 l 209 1093 l 16 1093 l 378 467 z "},"Z":{"ha":895,"x_min":0,"x_max":0,"o":"m 63 0 l 832 0 l 832 171 l 337 171 l 832 1093 l 63 1093 l 63 923 l 559 923 z "},"Ź":{"ha":895,"x_min":0,"x_max":0,"o":"m 467 1183 l 628 1405 l 477 1405 l 342 1183 z m 63 0 l 832 0 l 832 171 l 337 171 l 832 1093 l 63 1093 l 63 923 l 559 923 z "},"Ž":{"ha":895,"x_min":0,"x_max":0,"o":"m 186 1392 l 399 1194 l 494 1194 l 709 1392 l 570 1392 l 447 1275 l 324 1392 z m 63 0 l 832 0 l 832 171 l 337 171 l 832 1093 l 63 1093 l 63 923 l 559 923 z "},"Ż":{"ha":895,"x_min":0,"x_max":0,"o":"m 448 1217 b 529 1297 492 1217 529 1253 b 448 1379 529 1341 492 1379 b 366 1297 403 1379 366 1341 b 448 1217 366 1253 402 1217 z m 63 0 l 832 0 l 832 171 l 337 171 l 832 1093 l 63 1093 l 63 923 l 559 923 z "},"i":{"ha":382,"x_min":0,"x_max":0,"o":"m 105 0 l 277 0 l 277 1093 l 105 1093 z "},"ı":{"ha":382,"x_min":0,"x_max":0,"o":"m 105 0 l 277 0 l 277 1093 l 105 1093 z "},".":{"ha":388,"x_min":0,"x_max":0,"o":"m 194 -31 b 309 83 257 -31 309 20 b 194 199 309 146 256 199 b 79 83 131 199 79 146 b 194 -31 79 20 131 -31 z "},",":{"ha":420,"x_min":0,"x_max":0,"o":"m 145 -250 b 342 25 258 -250 342 -123 b 215 199 342 142 283 199 b 93 77 144 199 93 142 b 196 -28 93 7 151 -28 b 208 -80 205 -43 208 -55 b 82 -218 208 -178 127 -218 b 145 -250 82 -229 105 -250 z "},":":{"ha":388,"x_min":0,"x_max":0,"o":"m 194 525 b 309 640 257 525 309 576 b 194 755 309 703 257 755 b 79 640 131 755 79 703 b 194 525 79 576 131 525 z m 194 0 b 309 115 257 0 309 52 b 194 231 309 178 256 231 b 79 115 131 231 79 178 b 194 0 79 52 131 0 z "},";":{"ha":432,"x_min":0,"x_max":0,"o":"m 208 525 b 323 640 271 525 323 576 b 208 755 323 703 271 755 b 93 640 144 755 93 703 b 208 525 93 576 144 525 z m 157 -250 b 353 25 270 -250 353 -123 b 227 199 353 142 295 199 b 104 77 156 199 104 142 b 208 -28 104 7 163 -28 b 220 -80 217 -43 220 -55 b 94 -218 220 -178 139 -218 b 157 -250 94 -229 117 -250 z "},"…":{"ha":1394,"x_min":0,"x_max":0,"o":"m 251 -31 b 366 83 313 -31 366 20 b 251 199 366 146 313 199 b 136 83 188 199 136 146 b 251 -31 136 20 187 -31 z m 696 -31 b 812 83 760 -31 812 20 b 696 199 812 146 759 199 b 582 83 634 199 582 146 b 696 -31 582 20 633 -31 z m 1143 -31 b 1258 83 1205 -31 1258 20 b 1143 199 1258 146 1205 199 b 1027 83 1080 199 1027 146 b 1143 -31 1027 20 1079 -31 z "},"!":{"ha":441,"x_min":0,"x_max":0,"o":"m 148 347 l 292 347 l 317 1093 l 121 1093 z m 220 -31 b 336 81 283 -31 336 18 b 219 196 336 144 283 196 b 105 83 157 196 105 146 b 220 -31 105 20 157 -31 z "},"¡":{"ha":441,"x_min":0,"x_max":0,"o":"m 220 819 b 105 707 157 819 105 770 b 222 592 105 645 157 592 b 336 705 283 592 336 642 b 220 819 336 768 283 819 z m 293 441 l 149 441 l 123 -305 l 320 -305 z "},"?":{"ha":718,"x_min":0,"x_max":0,"o":"m 239 346 l 401 347 b 401 374 401 357 401 366 b 575 602 404 500 496 528 b 665 832 635 660 665 733 b 332 1129 665 976 528 1129 b 53 978 163 1129 80 1029 l 115 842 b 323 963 145 915 233 963 b 508 801 431 963 508 899 b 447 675 508 749 479 700 b 239 366 323 578 239 493 z m 323 -31 b 437 81 385 -31 437 18 b 321 196 437 144 385 196 b 208 83 259 196 208 146 b 323 -31 208 21 258 -31 z "},"¿":{"ha":718,"x_min":0,"x_max":0,"o":"m 395 838 b 280 726 332 838 280 789 b 396 611 280 663 332 611 b 510 724 458 611 510 661 b 395 838 510 786 460 838 z m 478 461 l 316 460 b 317 433 317 450 317 441 b 143 205 315 307 222 279 b 53 -25 83 147 53 74 b 386 -322 53 -169 191 -322 b 665 -171 555 -322 638 -222 l 603 -35 b 395 -156 572 -108 486 -156 b 210 6 287 -156 210 -92 b 271 132 210 58 239 107 b 478 441 395 229 478 314 z "},"·":{"ha":388,"x_min":0,"x_max":0,"o":"m 194 418 b 309 532 257 418 309 470 b 194 648 309 595 256 648 b 79 532 131 648 79 595 b 194 418 79 469 131 418 z "},"•":{"ha":694,"x_min":0,"x_max":0,"o":"m 347 345 b 534 531 450 345 534 429 b 347 718 534 633 450 718 b 159 530 243 718 159 633 b 347 345 159 428 243 345 z "},"*":{"ha":576,"x_min":0,"x_max":0,"o":"m 230 641 l 346 641 l 326 829 l 462 718 l 524 808 l 348 892 l 524 980 l 462 1071 l 326 959 l 346 1148 l 230 1148 l 250 959 l 115 1071 l 53 980 l 228 895 l 53 808 l 115 718 l 250 831 z "},"#":{"ha":1029,"x_min":0,"x_max":0,"o":"m 975 654 l 991 784 l 819 784 l 859 1093 l 720 1093 l 680 784 l 422 784 l 463 1093 l 323 1093 l 283 784 l 104 784 l 85 654 l 266 654 l 233 400 l 55 400 l 38 271 l 215 271 l 180 0 l 319 0 l 354 271 l 612 271 l 576 0 l 715 0 l 751 271 l 926 271 l 944 400 l 768 400 l 802 654 z m 629 400 l 372 400 l 405 654 l 663 654 z "},"/":{"ha":624,"x_min":0,"x_max":0,"o":"m 16 -81 l 167 -81 l 608 1175 l 456 1175 z "},"\\":{"ha":624,"x_min":0,"x_max":0,"o":"m 608 -81 l 168 1175 l 16 1175 l 457 -81 z "},"‥":{"ha":899,"x_min":0,"x_max":0,"o":"m 251 -31 b 366 83 313 -31 366 20 b 251 199 366 146 313 199 b 136 83 188 199 136 146 b 251 -31 136 20 187 -31 z m 648 -31 b 763 83 710 -31 763 20 b 648 199 763 146 710 199 b 532 83 585 199 532 146 b 648 -31 532 20 584 -31 z "},"(":{"ha":452,"x_min":0,"x_max":0,"o":"m 243 -81 l 399 -81 b 216 553 296 76 216 343 b 386 1175 216 754 289 1014 l 231 1175 b 53 554 99 983 53 762 b 243 -81 53 335 105 108 z "},")":{"ha":452,"x_min":0,"x_max":0,"o":"m 209 -81 b 399 554 347 108 399 335 b 222 1175 399 762 353 983 l 66 1175 b 237 553 163 1014 237 754 b 53 -81 237 343 157 76 z "},"{":{"ha":591,"x_min":0,"x_max":0,"o":"m 382 -81 l 538 -81 l 538 49 l 427 49 b 350 202 385 49 350 118 l 350 279 b 205 551 350 429 285 551 b 350 823 285 551 350 673 l 350 892 b 427 1043 350 974 385 1042 l 538 1045 l 538 1175 l 382 1175 b 202 962 283 1175 202 1079 l 202 844 b 53 604 202 711 138 604 l 53 498 b 202 258 138 498 202 390 l 202 132 b 382 -81 202 14 283 -81 z "},"}":{"ha":591,"x_min":0,"x_max":0,"o":"m 208 -81 b 389 132 308 -81 389 14 l 389 258 b 538 498 389 390 453 498 l 538 604 b 389 844 453 604 389 711 l 389 962 b 208 1175 389 1079 308 1175 l 53 1175 l 53 1045 l 164 1043 b 241 892 206 1042 241 974 l 241 823 b 386 551 241 673 306 551 b 241 279 306 551 241 429 l 241 202 b 164 49 241 118 206 49 l 53 49 l 53 -81 z "},"[":{"ha":474,"x_min":0,"x_max":0,"o":"m 422 1045 l 422 1175 l 105 1175 l 105 -81 l 422 -81 l 422 49 l 254 49 l 254 1045 z "},"]":{"ha":474,"x_min":0,"x_max":0,"o":"m 369 1175 l 53 1175 l 53 1045 l 221 1045 l 221 49 l 53 49 l 53 -81 l 369 -81 z "},"-":{"ha":641,"x_min":0,"x_max":0,"o":"m 53 458 l 589 458 l 589 608 l 53 608 z "},"–":{"ha":960,"x_min":0,"x_max":0,"o":"m 56 458 l 905 458 l 905 608 l 56 608 z "},"—":{"ha":1389,"x_min":0,"x_max":0,"o":"m 39 458 l 1351 458 l 1351 608 l 39 608 z "},"‒":{"ha":715,"x_min":0,"x_max":0,"o":"m 53 458 l 663 458 l 663 608 l 53 608 z "},"_":{"ha":820,"x_min":0,"x_max":0,"o":"m 0 -60 l 820 -60 l 820 60 l 0 60 z "},"‚":{"ha":347,"x_min":0,"x_max":0,"o":"m 114 -212 b 297 45 220 -212 297 -94 b 179 207 297 153 243 207 b 65 94 113 207 65 155 b 161 -4 65 28 120 -4 b 172 -53 170 -19 172 -30 b 55 -182 172 -145 98 -182 b 114 -212 55 -192 77 -212 z "},"„":{"ha":648,"x_min":0,"x_max":0,"o":"m 114 -213 b 297 43 220 -213 297 -95 b 179 205 297 152 243 205 b 65 92 113 205 65 153 b 161 -5 65 27 120 -5 b 172 -54 170 -20 172 -31 b 55 -184 172 -146 98 -184 b 114 -213 55 -193 77 -213 z m 414 -213 b 597 43 520 -213 597 -95 b 479 205 597 152 543 205 b 366 92 414 205 366 153 b 462 -5 366 27 420 -5 b 473 -54 471 -20 473 -31 b 355 -184 473 -146 398 -184 b 414 -213 355 -193 377 -213 z "},"“":{"ha":648,"x_min":0,"x_max":0,"o":"m 233 1110 b 50 854 127 1110 50 992 b 168 692 50 745 104 692 b 282 805 234 692 282 744 b 186 903 282 869 228 903 b 175 951 177 918 175 928 b 292 1080 175 1043 250 1080 b 233 1110 292 1090 271 1110 z m 534 1110 b 351 854 428 1110 351 992 b 469 692 351 745 405 692 b 583 805 534 692 583 744 b 486 903 583 869 528 903 b 475 951 477 918 475 928 b 593 1080 475 1043 550 1080 b 534 1110 593 1090 572 1110 z "},"”":{"ha":648,"x_min":0,"x_max":0,"o":"m 114 701 b 297 958 220 701 297 819 b 179 1120 297 1066 243 1120 b 65 1006 113 1120 65 1067 b 161 908 65 941 120 908 b 172 860 170 894 172 883 b 55 730 172 768 98 730 b 114 701 55 721 77 701 z m 414 701 b 597 958 520 701 597 819 b 479 1120 597 1066 543 1120 b 366 1006 414 1120 366 1067 b 462 908 366 941 420 908 b 473 860 471 894 473 883 b 355 730 473 768 398 730 b 414 701 355 721 377 701 z "},"‘":{"ha":347,"x_min":0,"x_max":0,"o":"m 233 1112 b 50 855 127 1112 50 994 b 168 693 50 746 104 693 b 282 806 234 693 282 745 b 186 904 282 871 228 904 b 175 952 177 919 175 929 b 292 1082 175 1044 250 1082 b 233 1112 292 1091 271 1112 z "},"’":{"ha":347,"x_min":0,"x_max":0,"o":"m 114 703 b 297 960 220 703 297 821 b 179 1122 297 1068 243 1122 b 65 1008 113 1122 65 1069 b 161 910 65 943 120 910 b 172 862 170 896 172 885 b 55 732 172 770 98 732 b 114 703 55 723 77 703 z "},"‛":{"ha":347,"x_min":0,"x_max":0,"o":"m 233 706 b 292 736 271 706 292 726 b 175 865 250 736 175 773 b 186 913 175 888 177 899 b 282 1011 228 913 282 947 b 168 1124 282 1072 234 1124 b 50 962 104 1124 50 1072 b 233 706 50 824 127 706 z "},"«":{"ha":802,"x_min":0,"x_max":0,"o":"m 419 871 l 310 895 l 53 539 l 310 184 l 419 208 l 216 539 z m 750 871 l 640 895 l 383 539 l 640 184 l 750 208 l 546 539 z "},"»":{"ha":802,"x_min":0,"x_max":0,"o":"m 162 895 l 53 871 l 256 539 l 53 208 l 162 184 l 419 539 z m 493 895 l 383 871 l 587 539 l 383 208 l 493 184 l 750 539 z "},"‹":{"ha":472,"x_min":0,"x_max":0,"o":"m 419 871 l 310 895 l 53 539 l 310 184 l 419 208 l 216 539 z "},"›":{"ha":472,"x_min":0,"x_max":0,"o":"m 162 895 l 53 871 l 256 539 l 53 208 l 162 184 l 419 539 z "},"\"":{"ha":519,"x_min":0,"x_max":0,"o":"m 89 765 l 188 765 l 225 1121 l 53 1121 z m 330 765 l 430 765 l 467 1121 l 294 1121 z "},"'":{"ha":277,"x_min":0,"x_max":0,"o":"m 89 765 l 188 765 l 225 1121 l 53 1121 z "},"　":{"ha":1389,"x_min":0,"x_max":0,"o":""}," ":{"ha":6250,"x_min":0,"x_max":0,"o":""}," ":{"ha":1389,"x_min":0,"x_max":0,"o":""}," ":{"ha":1389,"x_min":0,"x_max":0,"o":""}," ":{"ha":694,"x_min":0,"x_max":0,"o":""}," ":{"ha":694,"x_min":0,"x_max":0,"o":""}," ":{"ha":998,"x_min":0,"x_max":0,"o":""}," ":{"ha":347,"x_min":0,"x_max":0,"o":""}," ":{"ha":199,"x_min":0,"x_max":0,"o":""}," ":{"ha":326,"x_min":0,"x_max":0,"o":""}," ":{"ha":388,"x_min":0,"x_max":0,"o":""}," ":{"ha":231,"x_min":0,"x_max":0,"o":""}," ":{"ha":278,"x_min":0,"x_max":0,"o":""}," ":{"ha":463,"x_min":0,"x_max":0,"o":""},"​":{"ha":0,"x_min":0,"x_max":0,"o":""},"‍":{"ha":0,"x_min":0,"x_max":0,"o":""},"‌":{"ha":0,"x_min":0,"x_max":0,"o":""},"":{"ha":1351,"x_min":0,"x_max":0,"o":""},"฿":{"ha":884,"x_min":0,"x_max":0,"o":"m 597 616 b 720 812 637 616 720 694 b 481 1085 720 937 626 1054 l 481 1226 l 351 1226 l 351 1093 l 105 1093 l 105 0 l 351 0 l 351 -155 l 481 -155 l 481 0 l 514 0 b 858 333 731 0 858 165 b 597 616 858 503 720 616 z m 351 654 l 276 654 l 276 926 l 351 926 z m 559 790 b 481 669 559 736 528 690 l 481 911 b 559 790 526 888 559 844 z m 498 168 l 481 168 l 481 503 l 496 503 b 690 345 620 503 690 427 b 498 168 690 239 597 168 z m 276 168 l 276 503 l 351 503 l 351 168 z "},"₿":{"ha":884,"x_min":0,"x_max":0,"o":"m 858 333 b 597 616 858 503 720 616 b 720 812 637 616 720 694 b 546 1064 720 917 653 1017 l 546 1246 l 436 1246 l 436 1092 b 404 1093 425 1093 414 1093 l 357 1093 l 357 1246 l 248 1246 l 248 1093 l 105 1093 l 105 0 l 248 0 l 248 -148 l 357 -148 l 357 0 l 436 0 l 436 -148 l 546 -148 l 546 1 b 858 333 743 16 858 174 z m 414 926 b 559 790 491 926 559 868 b 412 654 559 712 496 654 l 276 654 l 276 926 z m 498 168 l 276 168 l 276 503 l 496 503 b 690 345 620 503 690 427 b 498 168 690 239 597 168 z "},"¢":{"ha":812,"x_min":0,"x_max":0,"o":"m 764 178 l 665 308 b 526 242 630 275 580 251 l 526 776 b 662 711 579 767 629 743 l 753 848 b 526 941 690 899 610 932 l 526 1086 l 386 1085 l 386 932 b 48 509 196 889 48 721 b 386 85 48 296 197 128 l 386 -67 l 526 -64 l 526 77 b 764 178 614 85 700 121 z m 212 509 b 386 762 212 629 286 724 l 386 256 b 212 509 286 293 212 388 z "},"¤":{"ha":821,"x_min":0,"x_max":0,"o":"m 680 547 b 632 699 680 603 662 655 l 769 834 l 702 901 l 565 766 b 412 813 522 795 469 813 b 262 766 356 813 304 795 l 125 905 l 59 838 l 195 700 b 146 545 164 656 146 603 b 192 397 146 490 163 439 l 53 261 l 119 195 l 257 331 b 411 281 300 299 354 281 b 562 327 467 281 519 298 l 699 189 l 766 255 l 629 392 b 680 547 661 436 680 489 z m 412 414 b 279 547 340 414 279 473 b 409 680 279 621 337 680 b 545 547 479 680 545 624 b 412 414 545 474 486 414 z "},"$":{"ha":852,"x_min":0,"x_max":0,"o":"m 810 300 b 503 632 810 473 676 556 l 498 634 l 498 939 b 638 829 558 926 611 888 l 766 918 b 498 1110 726 1025 629 1096 l 498 1226 l 368 1226 l 368 1105 b 96 809 211 1076 96 963 b 367 514 96 637 239 571 l 368 514 l 368 159 b 178 289 286 174 218 219 l 42 192 b 368 -16 98 79 214 -1 l 368 -155 l 498 -155 l 498 -13 b 810 300 680 13 810 130 z m 269 805 b 368 930 269 859 309 907 l 368 691 b 269 805 307 721 269 753 z m 498 163 l 498 454 b 638 297 576 412 638 363 b 498 163 638 232 581 182 z "},"€":{"ha":1160,"x_min":0,"x_max":0,"o":"m 726 155 b 359 418 569 155 416 262 l 821 418 l 832 507 l 339 507 b 337 545 338 519 337 532 b 340 595 337 562 338 578 l 839 595 l 850 684 l 363 684 b 724 938 422 833 571 938 b 1008 810 831 938 932 887 l 1107 945 b 728 1112 1000 1050 869 1110 b 181 684 469 1112 244 928 l 64 684 l 53 595 l 165 595 b 163 546 164 578 163 562 b 165 507 163 533 164 520 l 64 507 l 53 418 l 178 418 b 730 -18 238 170 465 -18 b 1107 146 894 -18 1014 54 l 1008 285 b 726 155 933 210 838 155 z "},"ƒ":{"ha":875,"x_min":0,"x_max":0,"o":"m 746 939 l 844 939 l 844 1104 l 715 1104 b 401 784 524 1104 445 1008 l 374 646 l 86 646 l 86 496 l 345 496 l 328 408 b 130 165 283 182 229 165 l 32 165 l 32 0 l 161 0 b 477 343 361 0 431 113 l 507 496 l 791 496 l 791 646 l 536 646 l 551 720 b 746 939 589 907 637 939 z "},"₣":{"ha":787,"x_min":0,"x_max":0,"o":"m 756 925 l 756 1096 l 105 1096 l 105 323 l 7 323 l 7 199 l 105 199 l 105 -1 l 277 -1 l 277 199 l 532 199 l 532 323 l 277 323 l 277 462 l 690 462 l 690 633 l 277 633 l 277 925 z "},"₭":{"ha":901,"x_min":0,"x_max":0,"o":"m 680 0 l 890 0 l 525 476 l 821 476 l 821 625 l 513 625 l 851 1093 l 652 1093 l 316 625 l 276 625 l 276 1093 l 105 1093 l 105 625 l 7 625 l 7 476 l 105 476 l 105 0 l 276 0 l 276 476 l 317 476 z "},"₤":{"ha":819,"x_min":0,"x_max":0,"o":"m 315 155 b 380 376 362 222 380 292 l 577 376 l 577 490 l 362 490 b 341 557 356 512 349 534 l 577 557 l 577 671 l 319 671 b 317 711 317 684 317 697 b 547 952 317 831 393 952 b 667 910 592 952 640 935 l 750 1055 b 540 1107 685 1089 601 1107 b 144 712 293 1107 144 924 b 146 671 144 698 145 684 l 57 671 l 57 557 l 168 557 b 189 490 175 534 182 511 l 57 490 l 57 376 l 210 376 b 141 155 210 303 189 226 l 56 155 l 56 0 l 766 0 l 766 155 z "},"₦":{"ha":1120,"x_min":0,"x_max":0,"o":"m 1113 625 l 1000 625 l 1000 1096 l 827 1096 l 827 625 l 595 625 l 130 1112 l 121 1112 l 121 625 l 7 625 l 7 476 l 121 476 l 121 -1 l 292 -1 l 292 476 l 517 476 l 991 -19 l 1000 -19 l 1000 476 l 1113 476 z m 292 625 l 292 711 l 375 625 z m 827 383 l 739 476 l 827 476 z "},"₱":{"ha":1049,"x_min":0,"x_max":0,"o":"m 1018 879 l 857 879 b 506 1093 797 1005 662 1093 l 140 1093 l 140 879 l 32 879 l 32 766 l 140 766 l 140 706 l 32 706 l 32 593 l 140 593 l 140 0 l 312 0 l 312 379 l 506 379 b 859 593 664 379 800 467 l 1018 593 l 1018 706 l 889 706 b 890 732 890 715 890 724 b 889 766 890 744 890 755 l 1018 766 z m 312 923 l 506 923 b 642 879 557 923 606 907 l 312 879 z m 719 734 b 716 706 719 724 718 715 l 312 706 l 312 766 l 716 766 b 719 734 718 755 719 745 z m 506 549 l 312 549 l 312 593 l 644 593 b 506 549 607 565 559 549 z "},"₽":{"ha":1004,"x_min":0,"x_max":0,"o":"m 551 410 b 951 747 779 410 951 553 b 567 1093 951 931 793 1093 l 205 1093 l 205 570 l 53 570 l 53 410 l 205 410 l 205 299 l 53 299 l 53 175 l 205 175 l 205 0 l 376 0 l 376 175 l 681 175 l 681 299 l 376 299 l 376 410 z m 376 923 l 567 923 b 780 749 699 923 780 838 b 567 579 780 646 699 579 l 376 580 z "},"₨":{"ha":928,"x_min":0,"x_max":0,"o":"m 701 943 l 851 943 l 880 1093 l 134 1093 l 105 943 l 382 943 b 568 827 467 943 538 898 l 132 827 l 110 710 l 579 710 b 382 555 562 620 483 555 l 153 556 l 153 548 l 631 1 l 842 1 l 450 425 b 522 431 474 424 503 427 b 758 710 637 452 741 567 l 856 710 l 878 827 l 752 827 b 701 943 743 870 725 909 z "},"£":{"ha":819,"x_min":0,"x_max":0,"o":"m 315 155 b 380 378 362 222 380 294 b 370 464 380 409 376 437 l 577 464 l 577 587 l 333 587 b 317 711 323 623 317 663 b 547 952 317 831 393 952 b 667 910 592 952 640 935 l 750 1055 b 540 1107 685 1089 601 1107 b 144 712 293 1107 144 924 b 161 587 144 665 151 625 l 57 587 l 57 464 l 197 464 b 210 378 204 435 210 407 b 141 155 210 304 189 227 l 56 155 l 56 0 l 766 0 l 766 155 z "},"₸":{"ha":821,"x_min":0,"x_max":0,"o":"m 32 1093 l 32 928 l 790 928 l 790 1093 z m 32 663 l 320 663 l 325 0 l 497 0 l 492 663 l 790 663 l 790 828 l 32 828 z "},"₮":{"ha":821,"x_min":0,"x_max":0,"o":"m 790 923 l 790 1093 l 32 1093 l 32 923 l 325 923 l 325 611 l 138 515 l 138 399 l 325 495 l 325 393 l 138 298 l 138 182 l 325 277 l 325 0 l 497 0 l 497 366 l 686 463 l 686 579 l 497 482 l 497 584 l 686 681 l 686 797 l 497 700 l 497 923 z "},"₩":{"ha":1314,"x_min":0,"x_max":0,"o":"m 1298 1093 l 1113 1093 l 972 625 l 829 625 l 661 1047 l 654 1047 l 486 625 l 341 625 l 201 1093 l 16 1093 l 163 625 l 22 625 l 22 476 l 210 476 l 363 -10 l 379 -10 l 583 476 l 728 476 l 935 -10 l 951 -10 l 1104 476 l 1292 476 l 1292 625 l 1151 625 z m 645 625 l 655 649 l 665 625 z m 404 418 l 386 476 l 427 476 z m 911 419 l 888 476 l 928 476 z "},"¥":{"ha":1001,"x_min":0,"x_max":0,"o":"m 949 1093 l 755 1093 l 500 658 l 246 1093 l 53 1093 l 348 583 l 81 583 l 81 450 l 415 450 l 415 359 l 81 359 l 81 226 l 415 226 l 415 0 l 585 0 l 585 226 l 928 226 l 928 359 l 585 359 l 585 450 l 928 450 l 928 583 l 652 583 z "},"+":{"ha":871,"x_min":0,"x_max":0,"o":"m 766 589 l 515 589 l 515 880 l 356 880 l 356 589 l 105 589 l 105 430 l 356 430 l 356 138 l 515 138 l 515 430 l 766 430 z "},"−":{"ha":857,"x_min":0,"x_max":0,"o":"m 105 430 l 751 430 l 751 589 l 105 589 z "},"×":{"ha":916,"x_min":0,"x_max":0,"o":"m 811 267 l 560 531 l 810 795 l 703 897 l 458 638 l 213 896 l 105 795 l 357 530 l 106 265 l 214 165 l 458 423 l 703 165 z "},"÷":{"ha":1062,"x_min":0,"x_max":0,"o":"m 520 741 b 635 855 583 742 635 794 b 519 970 635 916 582 970 b 406 856 458 970 406 919 b 520 741 406 793 457 741 z m 105 450 l 957 450 l 957 594 l 105 594 z m 519 65 b 635 180 583 65 635 119 b 519 294 635 241 581 294 b 406 180 459 294 406 244 b 519 65 406 117 458 65 z "},"=":{"ha":916,"x_min":0,"x_max":0,"o":"m 105 637 l 810 637 l 810 788 l 105 788 z m 105 267 l 810 267 l 810 418 l 105 418 z "},"≠":{"ha":916,"x_min":0,"x_max":0,"o":"m 810 637 l 810 788 l 610 788 l 701 1052 l 597 1052 l 507 788 l 105 788 l 105 637 l 454 637 l 380 418 l 105 418 l 105 267 l 328 267 l 243 21 l 347 21 l 431 267 l 810 267 l 810 418 l 484 418 l 558 637 z "},">":{"ha":864,"x_min":0,"x_max":0,"o":"m 111 133 l 759 552 l 759 566 l 105 984 l 111 804 l 516 559 l 111 313 z "},"<":{"ha":864,"x_min":0,"x_max":0,"o":"m 754 133 l 754 313 l 348 559 l 754 804 l 759 984 l 105 566 l 105 552 z "},"≥":{"ha":878,"x_min":0,"x_max":0,"o":"m 111 351 l 759 686 l 759 696 l 105 1031 l 111 888 l 516 691 l 111 494 z m 773 84 l 773 208 l 110 208 l 110 84 z "},"≤":{"ha":878,"x_min":0,"x_max":0,"o":"m 768 351 l 768 494 l 362 691 l 768 888 l 773 1031 l 119 696 l 119 686 z m 105 84 l 769 84 l 769 208 l 105 208 z "},"±":{"ha":814,"x_min":0,"x_max":0,"o":"m 488 753 l 488 961 l 328 961 l 328 753 l 105 753 l 105 608 l 328 608 l 328 379 l 488 379 l 488 608 l 709 608 l 709 753 z m 105 152 l 709 152 l 709 288 l 105 288 z "},"≈":{"ha":892,"x_min":0,"x_max":0,"o":"m 214 585 b 315 697 231 652 260 697 b 577 581 406 697 446 581 b 787 768 642 581 752 607 l 677 810 b 577 699 661 743 631 699 b 315 815 486 699 446 815 b 105 627 250 815 140 788 z m 214 261 b 315 373 231 328 260 373 b 577 256 406 373 446 256 b 787 444 642 256 752 283 l 677 486 b 577 374 661 419 631 374 b 315 491 486 374 446 491 b 105 303 250 491 140 465 z "},"~":{"ha":1017,"x_min":0,"x_max":0,"o":"m 232 406 b 351 538 252 486 287 538 b 659 401 458 538 505 401 b 905 621 736 401 864 432 l 778 669 b 659 538 758 591 722 538 b 351 675 552 538 505 675 b 105 456 274 675 146 644 z "},"¬":{"ha":991,"x_min":0,"x_max":0,"o":"m 105 682 l 105 522 l 726 522 l 726 296 l 886 296 l 886 682 z "},"^":{"ha":648,"x_min":0,"x_max":0,"o":"m 16 742 l 167 742 l 323 947 l 480 742 l 631 742 l 330 1138 l 316 1138 z "},"∅":{"ha":1009,"x_min":0,"x_max":0,"o":"m 781 877 l 911 1084 l 781 1084 l 686 933 b 505 972 631 958 569 972 b 53 519 256 972 53 768 b 210 178 53 383 113 261 l 90 -10 l 220 -10 l 300 117 b 505 68 362 85 431 68 b 957 521 753 68 957 271 b 781 877 957 665 888 794 z m 198 519 b 505 824 198 687 336 824 b 606 806 540 824 574 818 l 288 304 b 198 519 233 359 198 435 z m 505 215 b 380 241 460 215 418 224 l 701 751 b 809 519 767 695 809 612 b 505 215 809 352 672 215 z "},"∞":{"ha":1577,"x_min":0,"x_max":0,"o":"m 1166 918 b 788 700 1017 918 877 830 b 410 918 699 830 560 918 b 53 549 214 918 53 755 b 410 180 53 344 214 180 b 788 399 560 180 699 269 b 1166 180 877 269 1017 180 b 1524 549 1363 180 1524 344 b 1166 918 1524 755 1363 918 z m 412 333 b 206 549 302 333 206 430 b 412 766 206 669 300 766 b 715 549 518 766 633 684 b 412 333 633 413 518 333 z m 1165 333 b 862 549 1058 333 944 413 b 1165 766 944 684 1059 766 b 1370 549 1276 766 1370 669 b 1165 333 1370 430 1274 333 z "},"∫":{"ha":807,"x_min":0,"x_max":0,"o":"m 32 -205 l 135 -205 b 412 53 290 -205 387 -115 l 543 959 b 703 1133 557 1063 619 1133 l 776 1133 l 776 1287 l 672 1287 b 394 1029 517 1287 418 1197 l 264 123 b 104 -51 249 18 186 -51 l 32 -51 z "},"∏":{"ha":1013,"x_min":0,"x_max":0,"o":"m 981 1305 l 32 1305 l 32 1146 l 216 1146 l 216 -186 l 385 -186 l 385 1146 l 636 1146 l 636 -186 l 806 -186 l 806 1146 l 981 1146 z "},"∑":{"ha":997,"x_min":0,"x_max":0,"o":"m 923 1289 l 16 1289 l 16 1279 l 467 543 l 16 -193 l 16 -203 l 922 -203 l 922 -45 l 301 -44 l 661 542 l 661 544 l 302 1129 l 923 1129 z "},"√":{"ha":704,"x_min":0,"x_max":0,"o":"m 1009 1419 l 660 1419 l 317 347 l 180 787 l 16 787 l 312 -56 l 327 -56 l 768 1259 l 1009 1259 z "},"µ":{"ha":904,"x_min":0,"x_max":0,"o":"m 644 814 l 644 374 b 457 138 644 201 574 138 b 260 374 337 138 260 216 l 260 814 l 97 814 l 97 -305 l 260 -305 l 260 92 b 509 -20 319 20 405 -20 b 808 374 670 -20 808 65 l 808 814 z "},"∂":{"ha":864,"x_min":0,"x_max":0,"o":"m 428 -27 b 815 437 662 -27 815 157 b 478 1103 815 807 641 1029 l 346 1004 b 666 575 538 912 644 761 b 404 732 637 671 526 732 b 48 353 199 732 48 565 b 428 -27 48 144 199 -27 z m 441 136 b 212 353 311 136 212 231 b 435 569 212 477 313 569 b 661 355 562 569 661 471 b 441 136 661 231 569 136 z "},"%":{"ha":1186,"x_min":0,"x_max":0,"o":"m 306 600 b 559 853 444 600 559 714 b 307 1106 559 992 445 1106 b 53 852 168 1106 53 991 b 306 600 53 713 168 600 z m 144 0 l 290 0 l 1035 1094 l 890 1094 z m 306 713 b 165 852 228 713 165 776 b 306 993 165 930 228 993 b 446 852 383 993 446 930 b 306 713 446 776 383 713 z m 880 -14 b 1134 240 1019 -14 1134 101 b 880 493 1134 379 1019 493 b 627 239 742 493 627 379 b 880 -14 627 100 742 -14 z m 880 100 b 739 239 802 100 739 162 b 880 379 739 317 802 379 b 1019 240 958 379 1019 317 b 880 100 1019 162 958 100 z "},"‰":{"ha":1733,"x_min":0,"x_max":0,"o":"m 306 600 b 559 853 444 600 559 714 b 307 1106 559 992 445 1106 b 53 852 168 1106 53 991 b 306 600 53 713 168 600 z m 144 0 l 290 0 l 1035 1094 l 890 1094 z m 306 713 b 165 852 228 713 165 776 b 306 993 165 930 228 993 b 446 852 383 993 446 930 b 306 713 446 776 383 713 z m 880 -14 b 1134 240 1019 -14 1134 101 b 880 493 1134 379 1019 493 b 627 239 742 493 627 379 b 880 -14 627 100 742 -14 z m 1427 -14 b 1681 240 1566 -14 1681 101 b 1428 493 1681 379 1566 493 b 1174 239 1289 493 1174 379 b 1427 -14 1174 100 1289 -14 z m 880 100 b 739 239 802 100 739 162 b 880 379 739 317 802 379 b 1019 240 958 379 1019 317 b 880 100 1019 162 958 100 z m 1427 100 b 1286 239 1349 100 1286 162 b 1427 379 1286 317 1349 379 b 1567 240 1504 379 1567 317 b 1427 100 1567 162 1504 100 z "},"↑":{"ha":1457,"x_min":0,"x_max":0,"o":"m 1147 686 l 730 1118 l 312 686 l 402 596 l 655 853 l 655 -68 l 804 -68 l 804 853 l 1057 596 z "},"↗":{"ha":1457,"x_min":0,"x_max":0,"o":"m 574 945 l 574 817 l 935 820 l 283 169 l 389 64 l 1040 715 l 1037 354 l 1164 354 l 1174 954 z "},"→":{"ha":1457,"x_min":0,"x_max":0,"o":"m 890 942 l 800 852 l 1057 599 l 136 599 l 136 450 l 1057 450 l 800 197 l 890 106 l 1321 524 z "},"↘":{"ha":1457,"x_min":0,"x_max":0,"o":"m 572 102 l 1173 93 l 1164 694 l 1036 694 l 1039 333 l 387 984 l 282 879 l 933 227 l 572 231 z "},"↓":{"ha":1457,"x_min":0,"x_max":0,"o":"m 1057 452 l 804 195 l 804 1116 l 655 1116 l 655 195 l 402 452 l 312 362 l 730 -69 l 1147 362 z "},"↙":{"ha":1457,"x_min":0,"x_max":0,"o":"m 1200 890 l 1095 996 l 444 345 l 446 705 l 319 705 l 309 105 l 909 115 l 909 242 l 549 239 z "},"←":{"ha":1457,"x_min":0,"x_max":0,"o":"m 1321 599 l 400 599 l 657 852 l 567 942 l 136 524 l 567 106 l 657 197 l 400 450 l 1321 450 z "},"↖":{"ha":1457,"x_min":0,"x_max":0,"o":"m 1200 158 l 549 809 l 909 806 l 909 934 l 309 943 l 319 343 l 446 343 l 444 704 l 1095 52 z "},"↔":{"ha":1457,"x_min":0,"x_max":0,"o":"m 944 942 l 854 852 l 1111 599 l 346 599 l 603 852 l 513 942 l 81 524 l 513 106 l 603 197 l 346 450 l 1111 450 l 854 197 l 944 106 l 1375 524 z "},"↕":{"ha":1457,"x_min":0,"x_max":0,"o":"m 1146 309 l 1056 399 l 803 142 l 803 907 l 1056 650 l 1146 740 l 728 1171 l 311 740 l 401 650 l 654 907 l 654 142 l 401 399 l 311 309 l 728 -123 z "},"◊":{"ha":846,"x_min":0,"x_max":0,"o":"m 421 1027 l 153 528 l 421 30 l 693 528 z m 421 224 l 262 528 l 421 833 l 584 528 z "},"@":{"ha":1562,"x_min":0,"x_max":0,"o":"m 718 -312 b 944 -270 810 -312 869 -300 l 899 -122 b 734 -153 844 -145 795 -153 b 221 333 417 -153 221 57 b 852 968 221 680 504 966 b 1334 500 1118 970 1334 807 b 1129 117 1334 332 1263 117 b 1042 237 1065 117 1042 170 b 1044 279 1042 251 1042 264 l 1096 699 l 976 699 l 939 581 b 768 705 939 649 861 704 b 473 352 594 705 473 534 b 695 101 473 205 560 101 b 906 235 791 101 892 157 b 1100 -14 899 85 962 -14 b 1509 528 1347 -14 1509 258 b 880 1135 1509 862 1272 1135 b 53 314 425 1135 53 765 b 718 -312 53 -8 260 -312 z m 749 237 b 612 378 664 237 612 299 b 789 568 612 477 688 568 b 919 430 873 568 919 506 b 749 237 919 329 848 237 z "},"&":{"ha":1048,"x_min":0,"x_max":0,"o":"m 1017 150 b 824 231 966 150 899 180 b 895 549 867 316 892 423 l 734 547 b 688 336 730 467 715 395 b 340 839 510 492 340 712 b 454 962 340 908 391 962 b 578 844 516 962 570 910 l 745 875 b 460 1120 724 1006 608 1120 b 171 845 296 1120 171 981 b 237 635 171 784 196 712 b 53 320 140 578 53 452 b 427 -21 53 159 179 -21 b 736 105 549 -21 656 23 b 1016 -9 841 35 941 -9 z m 418 147 b 216 331 286 147 216 227 b 319 509 216 402 254 463 b 599 211 395 404 495 299 b 418 147 550 170 489 147 z "},"¶":{"ha":1051,"x_min":0,"x_max":0,"o":"m 153 798 b 483 476 153 621 301 476 l 546 476 l 546 -59 l 667 -59 l 667 1119 l 483 1119 b 153 798 301 1119 153 975 z m 780 1119 l 780 -64 l 899 -64 l 899 1119 z "},"§":{"ha":918,"x_min":0,"x_max":0,"o":"m 698 367 b 765 528 744 410 765 466 b 524 770 765 663 646 720 b 348 892 400 820 348 838 b 463 977 348 947 399 977 b 626 893 528 977 589 950 l 739 987 b 470 1136 701 1074 588 1136 b 184 898 319 1136 184 1042 b 252 748 184 832 213 784 b 181 592 206 708 181 654 b 404 355 181 452 311 391 b 598 212 505 315 598 281 b 463 119 598 146 530 119 b 245 231 368 119 290 163 l 153 125 b 457 -41 197 37 313 -41 b 762 222 622 -41 762 62 b 698 367 762 285 736 331 z m 340 587 b 406 662 340 624 370 650 b 408 661 406 662 407 661 b 607 518 505 623 607 588 b 556 450 607 486 585 463 l 520 464 b 340 587 403 510 340 529 z "},"©":{"ha":1179,"x_min":0,"x_max":0,"o":"m 590 -60 b 1127 477 886 -60 1127 176 b 590 1015 1127 772 892 1015 b 53 478 289 1015 53 776 b 590 -60 53 178 290 -60 z m 590 26 b 139 477 344 26 139 231 b 590 929 139 724 342 929 b 1041 477 837 929 1041 725 b 590 26 1041 230 837 26 z m 601 149 b 819 227 682 149 761 178 l 742 328 b 601 274 708 296 655 274 b 395 481 492 274 395 361 b 602 689 395 602 492 689 b 740 636 654 689 707 668 l 811 742 b 601 815 753 787 677 815 b 269 481 423 815 269 671 b 601 149 269 291 423 149 z "},"®":{"ha":750,"x_min":0,"x_max":0,"o":"m 375 1093 b 58 777 197 1093 58 952 b 375 459 58 600 198 459 b 692 777 550 459 692 597 b 375 1093 692 951 553 1093 z m 375 509 b 109 776 230 509 109 630 b 375 1043 109 922 229 1043 b 642 776 521 1043 642 922 b 375 509 642 630 521 509 z m 492 840 b 378 949 492 901 441 949 l 269 949 l 269 610 l 319 610 l 319 763 l 364 750 l 463 610 l 524 610 l 424 745 b 492 840 463 758 492 796 z m 318 782 l 318 901 l 378 901 b 442 840 413 901 442 873 b 378 782 442 808 413 782 z "},"™":{"ha":884,"x_min":0,"x_max":0,"o":"m 860 1103 l 639 766 l 417 1103 l 412 1103 l 412 629 l 484 629 l 484 887 l 638 637 l 639 637 l 793 886 l 793 629 l 865 629 l 865 1103 z m 36 1021 l 160 1021 l 160 629 l 233 629 l 233 1021 l 357 1021 l 357 1093 l 36 1093 z "},"°":{"ha":467,"x_min":0,"x_max":0,"o":"m 233 748 b 418 932 334 748 418 831 b 233 1118 418 1034 334 1118 b 48 932 132 1118 48 1034 b 233 748 48 832 133 748 z m 233 827 b 127 932 174 827 127 876 b 233 1039 127 991 176 1039 b 338 933 290 1039 338 991 b 233 827 338 875 291 827 z "},"|":{"ha":427,"x_min":0,"x_max":0,"o":"m 161 -305 l 266 -305 l 266 1255 l 161 1255 z "},"¦":{"ha":427,"x_min":0,"x_max":0,"o":"m 161 576 l 266 576 l 266 1255 l 161 1255 z m 161 -305 l 266 -305 l 266 373 l 161 373 z "},"†":{"ha":467,"x_min":0,"x_max":0,"o":"m 450 951 l 283 951 l 283 1119 l 184 1119 l 184 951 l 16 951 l 16 861 l 184 861 l 184 0 l 283 0 l 283 861 l 450 861 z "},"‡":{"ha":467,"x_min":0,"x_max":0,"o":"m 450 861 l 450 951 l 283 951 l 283 1119 l 184 1119 l 184 951 l 16 951 l 16 861 l 184 861 l 184 258 l 16 258 l 16 168 l 184 168 l 184 0 l 283 0 l 283 168 l 450 168 l 450 258 l 283 258 l 283 861 z "},"℮":{"ha":1319,"x_min":0,"x_max":0,"o":"m 680 -22 b 1211 281 947 -22 1148 138 l 1145 281 b 680 39 1084 157 887 39 b 249 218 533 39 368 100 l 249 505 l 1261 505 b 1266 591 1263 524 1266 562 b 684 1109 1266 872 1015 1109 b 53 544 344 1109 53 860 b 680 -22 53 222 353 -22 z m 249 581 l 249 874 b 684 1049 361 982 519 1049 b 1083 888 848 1049 986 983 l 1083 581 z "},"ʼ":{"ha":246,"x_min":0,"x_max":0,"o":"m 16 773 l 150 773 l 231 1119 l 71 1119 z "},"̈":{"ha":0,"x_min":0,"x_max":0,"o":"m -359 937 b -288 1008 -320 937 -288 969 b -359 1080 -288 1046 -320 1080 b -431 1008 -397 1080 -431 1046 b -359 937 -431 969 -397 937 z m -55 937 b 17 1008 -16 937 17 969 b -55 1080 17 1046 -16 1080 b -125 1008 -93 1080 -125 1046 b -55 937 -125 969 -94 937 z "},"̇":{"ha":0,"x_min":0,"x_max":0,"o":"m -203 937 b -121 1018 -159 937 -121 973 b -203 1100 -121 1062 -159 1100 b -284 1018 -248 1100 -284 1062 b -203 937 -284 974 -248 937 z "},"̀":{"ha":0,"x_min":0,"x_max":0,"o":"m -124 904 l 0 904 l -134 1126 l -286 1126 z "},"́":{"ha":0,"x_min":0,"x_max":0,"o":"m -161 904 l 0 1126 l -151 1126 l -286 904 z "},"̋":{"ha":0,"x_min":0,"x_max":0,"o":"m -467 903 l -359 903 l -227 1124 l -362 1124 z m -254 903 l -140 903 l 34 1124 l -111 1124 z "},"̂":{"ha":0,"x_min":0,"x_max":0,"o":"m -494 914 l -355 914 l -233 1031 l -109 914 l 31 914 l -184 1112 l -281 1112 z "},"̌":{"ha":0,"x_min":0,"x_max":0,"o":"m -490 1112 l -277 914 l -181 914 l 34 1112 l -105 1112 l -229 996 l -351 1112 z "},"̆":{"ha":0,"x_min":0,"x_max":0,"o":"m -204 916 b -9 1110 -97 916 -9 1003 l -92 1110 b -204 994 -92 1046 -142 994 b -315 1110 -265 994 -315 1046 l -398 1110 b -204 916 -398 1003 -311 916 z "},"̊":{"ha":0,"x_min":0,"x_max":0,"o":"m -152 883 b -7 1029 -73 883 -7 949 b -152 1175 -7 1109 -73 1175 b -298 1029 -232 1175 -298 1109 b -152 883 -298 949 -232 883 z m -152 956 b -224 1028 -192 956 -224 989 b -152 1101 -224 1068 -192 1101 b -80 1028 -112 1101 -80 1068 b -152 956 -80 989 -112 956 z "},"̃":{"ha":0,"x_min":0,"x_max":0,"o":"m -448 924 b -369 1013 -435 977 -412 1013 b -164 921 -298 1013 -267 921 b 0 1067 -113 921 -27 942 l -84 1100 b -163 1012 -98 1047 -121 1012 b -369 1104 -235 1012 -267 1104 b -533 958 -420 1104 -506 1083 z "},"̄":{"ha":0,"x_min":0,"x_max":0,"o":"m -397 950 l -9 950 l -9 1040 l -397 1040 z "},"̒":{"ha":0,"x_min":0,"x_max":0,"o":"m -146 1190 b -289 1010 -224 1190 -289 1111 b -201 901 -289 936 -245 901 b -118 976 -153 901 -118 936 b -190 1040 -118 1017 -157 1040 b -199 1075 -197 1050 -199 1059 b -104 1171 -199 1145 -136 1171 b -146 1190 -104 1177 -120 1190 z "},"̦":{"ha":0,"x_min":0,"x_max":0,"o":"m -260 -372 b -117 -193 -182 -372 -117 -293 b -205 -83 -117 -118 -160 -83 b -288 -157 -253 -83 -288 -117 b -216 -222 -288 -199 -249 -222 b -207 -256 -209 -232 -207 -241 b -302 -353 -207 -326 -270 -353 b -260 -372 -302 -359 -286 -372 z "},"̧":{"ha":0,"x_min":0,"x_max":0,"o":"m -321 -353 b -58 -172 -166 -350 -58 -267 b -153 -73 -58 -115 -98 -73 b -183 -75 -163 -73 -172 -74 l -112 18 l -199 18 l -297 -112 l -274 -142 b -234 -138 -259 -139 -245 -138 b -176 -176 -191 -138 -176 -155 b -364 -248 -176 -217 -233 -244 z "},"̨":{"ha":0,"x_min":0,"x_max":0,"o":"m -75 -345 l -96 -227 b -168 -236 -127 -233 -155 -236 b -237 -171 -229 -236 -237 -191 b -82 0 -237 -112 -177 -62 l -162 16 b -361 -210 -264 -16 -361 -101 b -180 -357 -361 -302 -294 -357 b -75 -345 -149 -357 -113 -353 z "},"̵":{"ha":0,"x_min":0,"x_max":0,"o":"m -517 442 l 9 442 l 9 566 l -517 566 z "},"̶":{"ha":0,"x_min":0,"x_max":0,"o":"m -707 486 l 289 486 l 289 610 l -707 610 z "},"̷":{"ha":0,"x_min":0,"x_max":0,"o":"m -441 652 l 24 984 l 24 1122 l -441 789 z "},"̸":{"ha":0,"x_min":0,"x_max":0,"o":"m -760 -71 l -614 -71 l 30 871 l -116 871 z "},"¨":{"ha":407,"x_min":0,"x_max":0,"o":"m 48 937 b 119 1008 87 937 119 969 b 48 1080 119 1046 87 1080 b -24 1008 9 1080 -24 1046 b 48 937 -24 969 9 937 z m 352 937 b 424 1008 391 937 424 969 b 352 1080 424 1046 391 1080 b 281 1008 314 1080 281 1046 b 352 937 281 969 313 937 z "},"˙":{"ha":407,"x_min":0,"x_max":0,"o":"m 204 937 b 286 1018 248 937 286 973 b 204 1100 286 1062 248 1100 b 123 1018 159 1100 123 1062 b 204 937 123 974 159 937 z "},"`":{"ha":407,"x_min":0,"x_max":0,"o":"m 161 904 l 286 904 l 151 1126 l 0 1126 z "},"´":{"ha":407,"x_min":0,"x_max":0,"o":"m 124 904 l 286 1126 l 134 1126 l 0 904 z "},"˝":{"ha":407,"x_min":0,"x_max":0,"o":"m -10 903 l 98 903 l 230 1124 l 95 1124 z m 203 903 l 317 903 l 491 1124 l 346 1124 z "},"ˆ":{"ha":407,"x_min":0,"x_max":0,"o":"m -31 914 l 108 914 l 231 1031 l 354 914 l 494 914 l 279 1112 l 182 1112 z "},"ˇ":{"ha":407,"x_min":0,"x_max":0,"o":"m -27 1112 l 186 914 l 282 914 l 497 1112 l 358 1112 l 235 996 l 112 1112 z "},"˘":{"ha":407,"x_min":0,"x_max":0,"o":"m 203 916 b 397 1110 310 916 397 1003 l 315 1110 b 203 994 315 1046 264 994 b 92 1110 142 994 92 1046 l 9 1110 b 203 916 9 1003 96 916 z "},"˚":{"ha":407,"x_min":0,"x_max":0,"o":"m 152 883 b 297 1029 231 883 297 949 b 152 1175 297 1109 231 1175 b 6 1029 72 1175 6 1109 b 152 883 6 949 72 883 z m 152 956 b 79 1028 112 956 79 989 b 152 1101 79 1068 112 1101 b 224 1028 192 1101 224 1068 b 152 956 224 989 192 956 z "},"˜":{"ha":479,"x_min":0,"x_max":0,"o":"m 85 924 b 164 1013 98 977 121 1013 b 369 921 235 1013 267 921 b 533 1067 420 921 506 942 l 449 1100 b 370 1012 435 1047 412 1012 b 164 1104 298 1012 267 1104 b 0 958 113 1104 27 1083 z "},"¯":{"ha":407,"x_min":0,"x_max":0,"o":"m 9 950 l 397 950 l 397 1040 l 9 1040 z "},"¸":{"ha":407,"x_min":0,"x_max":0,"o":"m 86 -353 b 349 -172 241 -350 349 -267 b 254 -73 349 -115 309 -73 b 224 -75 243 -73 235 -74 l 295 18 l 208 18 l 110 -112 l 133 -142 b 173 -138 148 -139 161 -138 b 231 -176 216 -138 231 -155 b 43 -248 231 -217 174 -244 z "},"˛":{"ha":407,"x_min":0,"x_max":0,"o":"m 332 -345 l 311 -227 b 239 -236 280 -233 252 -236 b 170 -171 178 -236 170 -191 b 325 0 170 -112 230 -62 l 245 16 b 46 -210 143 -16 46 -101 b 227 -357 46 -302 113 -357 b 332 -345 258 -357 294 -353 z "}}}
